<svg xmlns="http://www.w3.org/2000/svg" viewBox="0 0 72 72">
<?xml version="1.0" encoding="UTF-8"?>

  <g id="Layer_1" data-name="Layer 1">
    <g id="color">
      <path d="m41.35,43c2.45,0,3.75.54,5.17,1.41v-.02s.01,11.9.01,11.9h-28.98v-11.9l-.08-.15c1.38-.76,2.59-1.23,4.87-1.23h.09s.28,11.83,8.92,12.95h.85c8.64-1.11,8.92-12.96,8.92-12.96" style="fill: #3f3f3f;"/>
      <rect x="54.39" y="35.29" width="4" height="10.43" transform="translate(-12.13 51.74) rotate(-45)" style="fill: #9b9b9a;"/>
      <circle cx="49.67" cy="33.97" r="4" style="fill: #d0cfce;"/>
    </g>
    <g id="hair">
      <path d="m54.07,40.18c-1.32-.36-1.84-1.88-1.75-3.24-1.57,1.4-3.97,1.37-5.48-.14-1.56-1.56-1.56-4.09,0-5.66.83-.83,1.93-1.2,3.02-1.15-.46-.87-.4-2.34-.78-3.85,0,0-.43-.33-.51-.78-.07-.4-.15-.81-.25-1.23-.57-2.23-1.29-7.8-8.35-12.69-2.42-1.68-4.86.53-4.86.53l-.31-.23s-3.77-6.17-10.46-.81c-6.7,5.35-7.79,10.46-8.35,12.69s-.34,4.41-2.16,4.63c-1.82.22-2.73,3.12-1.82,4.51.91,1.39.68,4.36-1.25,4.89-1.93.53-2.82,4.29-1.87,5.88.57,1.13,2.21,2.89,4.96,4.52,1.22-3.04,3.79-5.75,9.07-5.75,3.17,2.1,5.89,3.56,8.94,3.57,3.05-.01,5.77-1.47,8.94-3.57,5.43,0,7.99,2.82,9.17,5.92,1.8-.63,3.66-1.34,5.6-2.16,2.86-1.22.45-5.35-1.48-5.88Z" style="fill: #a57939;"/>
    </g>
    <g id="skin">
      <path d="m20.86,23.43c-.93.1,1.33,2.73,1.33,3.71,0,1.17-1.44,1.46-1.23,2.55,1.22,6.18,5.69,10.77,11.01,10.77,6.26,0,11.34-6.35,11.34-14.17,0-.98-.08-1.93-.23-2.86,0,0-6.74-3.48-8.37-6.8v-.57s-.83,2.22-2.38,2.8h0l-.76-4.8h0s-5.75,8.87-10.7,9.38Z" style="fill: #fcea2b;"/>
      <path d="m40.79,42.31c-3.17,2.1-5.89,3.56-8.94,3.57-3.05-.01-5.77-1.47-8.94-3.57-12,0-10,14-10,14l4.64-.02v-11.89l-.08-.15c1.38-.76,2.59-1.23,4.87-1.23h.09s.28,11.83,8.92,12.95h.85c8.64-1.11,8.92-12.96,8.92-12.96h.23c2.45.01,3.75.55,5.17,1.42v-.02s.01,11.74.01,11.74l4.25-.02s2-13.8-10-13.8Z" style="fill: #fcea2b;"/>
    </g>
    <g id="line">
      <path d="m37.97,24.45c0,1.1-.9,2-2,2s-2-.9-2-2,.9-2,2-2,2,.9,2,2"/>
      <path d="m29.97,24.45c0,1.1-.9,2-2,2s-2-.9-2-2,.9-2,2-2,2,.9,2,2"/>
      <path d="m31.97,34.46c-1.15,0-2.3-.29-3.45-.86-.49-.25-.69-.85-.45-1.34.25-.49.85-.69,1.34-.45,1.72.86,3.39.86,5.11,0,.49-.25,1.09-.05,1.34.45.25.49.05,1.09-.45,1.34-1.14.57-2.3.86-3.45.86Z"/>
      <path d="m21.06,29.67c1.34,5.96,5.72,10.32,10.91,10.32s9.2-4,10.73-9.56" style="fill: none; stroke: #000; stroke-linecap: round; stroke-linejoin: round; stroke-width: 2px;"/>
      <path d="m50.79,55.31s2-13-10-13c-3.19,2.13-5.93,3.6-9,3.59h.12c-3.07,0-5.81-1.46-9-3.59-12,0-10,13-10,13" style="fill: none; stroke: #000; stroke-linecap: round; stroke-linejoin: round; stroke-width: 2px;"/>
      <rect x="54.39" y="35.29" width="4" height="10.43" transform="translate(-12.13 51.74) rotate(-45)" style="fill: none; stroke: #000; stroke-linecap: round; stroke-linejoin: round; stroke-width: 2px;"/>
      <circle cx="49.67" cy="33.97" r="4" style="fill: none; stroke: #000; stroke-linecap: round; stroke-linejoin: round; stroke-width: 2px;"/>
      <line x1="60.3" y1="44.38" x2="63.15" y2="47.23" style="fill: none; stroke: #000; stroke-linecap: round; stroke-linejoin: round; stroke-width: 2px;"/>
      <line x1="54.9" y1="42.18" x2="54.9" y2="56.18" style="fill: none; stroke: #000; stroke-linecap: round; stroke-linejoin: round; stroke-width: 2px;"/>
      <path d="m34.71,12.06s-3.62-6.17-10.06-.82-7.49,10.46-8.03,12.69c-.55,2.23-.33,4.41-2.07,4.63-1.75.22-2.62,3.13-1.75,4.51.87,1.39.66,4.36-1.2,4.89-1.86.53-3.49,3.7-1.42,5.88" style="fill: none; stroke: #000; stroke-linecap: round; stroke-linejoin: round; stroke-width: 2px;"/>
      <path d="m35.01,11.78s2.35-2.21,4.68-.53c6.8,4.9,7.49,10.46,8.03,12.69.1.41.18.83.24,1.23.08.45.14.89.22,1.29" style="fill: none; stroke: #000; stroke-linecap: round; stroke-linejoin: round; stroke-width: 2px;"/>
      <path d="m43.25,30.86c-1.97-1.53-.04-6.93-.04-6.93-2.23-.48-8.21-8.17-8.21-8.17,0,0-.7,2.21-2.66,3.08l-.76-4.8s-6.25,8.97-11.04,9.89c0,0,3.62,4.3.12,6.05-3.49,1.75-2.55,4.91-1.02,5.24" style="fill: none; stroke: #000; stroke-linecap: round; stroke-linejoin: round; stroke-width: 2px;"/>
      <path d="m41.12,42.29s-.28,11.84-8.92,12.96h-.85c-8.64-1.11-8.92-12.96-8.92-12.96" style="fill: none; stroke: #000; stroke-linecap: round; stroke-linejoin: round; stroke-width: 2px;"/>
      <line x1="17.56" y1="43.69" x2="17.56" y2="55.31" style="fill: none; stroke: #000; stroke-linecap: round; stroke-linejoin: round; stroke-width: 2px;"/>
      <line x1="46.54" y1="43.69" x2="46.54" y2="55.36" style="fill: none; stroke: #000; stroke-linecap: round; stroke-linejoin: round; stroke-width: 2px;"/>
    </g>
  </g>
  <g id="Layer_2" data-name="Layer 2">
    <g id="color-2" data-name="color">
      <path d="m52.89,23.94l-11.9-4.8c-.2-4.3-1.9-11.3-10.6-11.6-12,0-14.6,11-14.6,11l-1,2-.6,1.2-5.3,2.2" style="fill: #92d3f5;"/>
      <path d="m13.98,23.94l-2.29,5.7c-.31.58-.38,1.26-.2,1.9l2.9,10.7c.06.19.26.3.45.25.12-.03.21-.13.25-.25l.2-7.7.6-.6,1-1.3,8-8.8" style="fill: #61b2e4;"/>
      <path d="m11.89,59.19v-4c0-4.99,5.01-9,10-9,6,5,12,5,18,0,4.99,0,10,4.01,10,9v4" style="fill: #92d3f5;"/>
      <path d="m40.55,59.19v-4.01c-.14-2.63-1.59-5.26-3.65-6.91,1-.55,1.99-1.25,2.99-2.08,4.99,0,10,4.01,10,9v4" style="fill: #61b2e4;"/>
      <path d="m48.26,38.78c-2.54-1.07-3.73-4.01-2.66-6.55s4.01-3.73,6.55-2.66,3.73,4.01,2.66,6.55c-.45,1.06-1.25,1.93-2.26,2.47" style="fill: #61b2e4;"/>
      <path d="m50.2,30.71c-.88.14-1.69.54-2.34,1.15,1.54-.35,3.14-.35,4.68,0-.65-.61-1.46-1.01-2.34-1.15Z" style="fill: #92d3f5;"/>
      <polyline points="52.2 59.24 52.2 38.78 48.2 38.78 48.2 59.24" style="fill: #a57939;"/>
    </g>
    <g id="skin-2" data-name="skin">
      <path d="m21.95,23.84c-.6,1.52-.91,3.16-.91,5.1,0,8,5,14,11,14s11-6,11-14c0-1.94-.3-3.58-.91-5.1" style="fill: #fcea2b;"/>
    </g>
    <g id="line-2" data-name="line">
      <path d="m13.98,24.51l-2.19,5.6c-.31.58-.38,1.26-.2,1.9l2.8,10.7c.06.19.26.3.45.25.12-.03.21-.13.25-.25l.2-7.7c.01-.47.08-.94.2-1.4" style="fill: none; stroke: #000; stroke-linecap: round; stroke-linejoin: round; stroke-width: 2px;"/>
      <path d="m21.79,16.21c-.42,1.1-.73,2.24-.9,3.4h0l-12,4.9h44l-11.9-4.9c-.2-4.3-2.2-11.3-10.9-11.6-13,0-15.2,13.5-15.2,13.5" style="fill: none; stroke: #000; stroke-linecap: round; stroke-linejoin: round; stroke-width: 2px;"/>
      <path d="m48.26,39.3c-2.54-1.07-3.73-4.01-2.66-6.55s4.01-3.73,6.55-2.66,3.73,4.01,2.66,6.55c-.45,1.06-1.25,1.93-2.26,2.47" style="fill: none; stroke: #000; stroke-linecap: round; stroke-linejoin: round; stroke-width: 2px;"/>
      <polyline points="52.2 58.76 52.2 39.32 48.2 39.32 48.2 58.76" style="fill: none; stroke: #000; stroke-linecap: round; stroke-linejoin: round; stroke-width: 2px;"/>
      <path d="m11.89,58.71v-3c0-4.99,5.01-9,10-9,6,5,12,5,18,0,3.21,0,6.43,1.66,8.32,4.17" style="fill: none; stroke: #000; stroke-linecap: round; stroke-linejoin: round; stroke-width: 2px;"/>
      <path d="m36.89,28.61c0,1.1-.9,2-2,2s-2-.9-2-2,.9-2,2-2,2,.9,2,2"/>
      <path d="m28.89,28.61c0,1.1-.9,2-2,2s-2-.9-2-2,.9-2,2-2,2,.9,2,2"/>
      <path d="m20.8,24.51c-.6,1.52-.91,3.16-.91,5.1,0,8,5,14,11,14s11-6,11-14c0-1.94-.3-3.58-.91-5.1" style="fill: none; stroke: #000; stroke-linecap: round; stroke-linejoin: round; stroke-width: 2px;"/>
      <path d="m27.89,36.81c1.9,1,4.1,1,6,0" style="fill: none; stroke: #000; stroke-linecap: round; stroke-linejoin: round; stroke-width: 2px;"/>
    </g>
  </g>
  <g id="Layer_3" data-name="Layer 3">
    <g>
      <g id="skin-3" data-name="skin">
        <circle cx="31.23" cy="13.37" r="3" style="fill: #fcea2b;"/>
        <path d="m42.53,23.04c-3.81-.95-10.58-3.05-14.3-3.81-4.77-.95-9.53,10.49-9.53,10.49h7.63l4.29-7.44,9.72,2.1" style="fill: #fcea2b;"/>
      </g>
      <g id="color-3" data-name="color">
        <path d="m53.02,37.34l7.63-7.91-20.97-.67h-10.49l-25.74,1.24,5.72,7.34,5.72,2.1,8.39-1.33,8.77-1.72,6.86,1.14,8.39,1.72,5.72-1.91Z" style="fill: #d0cfce;"/>
        <path d="m62.55,36.39c-7.63,0-10.49,2.86-15.25,2.86s-9.53-2.86-15.25-2.86-9.53,2.86-15.25,2.86-12.39-2.86-15.25-2.86v12.11c0,1.33,1.33,7.91,6.67,7.91h48.71c5.53,0,5.62-5.53,5.62-10.01v-10.01Z" style="fill: #92d3f5;"/>
        <path d="m21.56,38.29s2.96-2.1,3.81-2.86c1.35-1.12,3.02-1.79,4.77-1.91l12.39-10.49.76-.67s.86,1.53.57,2.1-5.81,4.96-5.81,4.96l-6.01,5.34.29,2-8.87,1.24-1.91.29Z" style="fill: #a57939;"/>
      </g>
      <g id="line-3" data-name="line">
        <path d="m9.17,37.34l-5.72-7.34,25.74-.29" style="fill: none; stroke: #000; stroke-linecap: round; stroke-linejoin: round; stroke-width: 2px;"/>
        <path d="m2.5,36.39c2.86,0,8.58,2.86,14.3,2.86s9.53-2.86,15.25-2.86,10.49,2.86,15.25,2.86,6.67-2.86,14.3-2.86" style="fill: none; stroke: #000; stroke-linecap: round; stroke-linejoin: round; stroke-width: 2px;"/>
        <path d="m21.56,38.29s2.96-2.1,3.81-2.86c1.35-1.12,3.02-1.79,4.77-1.91l12.39-10.49" style="fill: none; stroke: #000; stroke-linecap: round; stroke-linejoin: round; stroke-width: 2px;"/>
        <path d="m52.07,38.29l8.58-8.87-20.97.29" style="fill: none; stroke: #000; stroke-linecap: round; stroke-linejoin: round; stroke-width: 2px;"/>
        <circle cx="31.09" cy="13.51" r="3" style="fill: none; stroke: #000; stroke-linecap: round; stroke-linejoin: round; stroke-width: 2px;"/>
        <path d="m42.53,23.04c-3.81-.95-10.58-3.05-14.3-3.81-4.77-.95-9.53,10.49-9.53,10.49" style="fill: none; stroke: #000; stroke-linecap: round; stroke-linejoin: round; stroke-width: 2px;"/>
        <path d="m26.33,29.71l3.81-6.67" style="fill: none; stroke: #000; stroke-linecap: round; stroke-linejoin: round; stroke-width: 2px;"/>
      </g>
    </g>
  </g>
  <g id="Layer_4" data-name="Layer 4">
    <g>
      <g id="skin-4" data-name="skin">
        <circle cx="33.23" cy="17.06" r="3" style="fill: #fcea2b;"/>
        <path d="m35.34,43.18c1.07,1.98,7.71,1.48,8.91-1.02.21-.43.34-.93.25-1.03-.35-.39-2.39-3.96-2.39-3.96l-1.42-4.88-.4-5.09-3.07-3.57h-4l-4.44.1-1.61,1.63-.95,3.07-1.51,7.49-1.68,4.71-1.45,1.56c-.01.37.1.74.32,1.04.8,1.02,3.2.96,4.43-.05" style="fill: #fcea2b;"/>
        <path d="m28.75,36.31c-.38,1.83-1.1,3.58-2.12,5.15,0,0-.69.68-5.57,3.25-1.6.86-4.37,3.4-4.37,4.64s8.04,1.08,10.5,1.01c1.86-.06,5.93-1.84,5.93-1.84l7.77,1.59,4.51.7,3.82-.04,1.41-1.63-1.5-2.3-7.23-3.57-2.4-2.36c-.77-1.93-1.31-3.93-1.62-5.98-.09-2.14-.44-6.98.11-6.91" style="fill: #fcea2b;"/>
      </g>
      <g id="line-4" data-name="line">
        <circle cx="33.23" cy="17.06" r="2.86" style="fill: none; stroke: #000; stroke-miterlimit: 10; stroke-width: 2px;"/>
        <path d="m22.14,42.36s2.4-5.5,2.97-7.66c.42-1.72.57-3.49.45-5.26-.08-2.11,1.19-5.24,3.08-5.81.99-.23,2-.35,3.02-.35.2,0,.5-.01.69,0,.2,0,2.36,0,2.56,0,1.02,0,2.03.13,3.02.35,1.89.57,3.16,3.7,3.08,5.81-.13,1.76.02,3.54.45,5.26.57,2.15,2.45,6.62,2.45,6.62" style="fill: none; stroke: #000; stroke-linecap: round; stroke-linejoin: round; stroke-width: 2px;"/>
        <path d="m27.33,40.95c.61-1.22,1.13-2.49,1.56-3.79.13-1.2.16-2.42.08-3.62" style="fill: none; stroke: #000; stroke-linecap: round; stroke-linejoin: round; stroke-width: 2px;"/>
        <path d="m26.75,50.12s-.58.08-1.25.24c-.67.08-2,.16-2.92.16h-4.17c-.9.02-1.65-.7-1.67-1.6.08-1,.64-1.89,1.5-2.4l3.08-1.6" style="fill: none; stroke: #000; stroke-linecap: round; stroke-linejoin: round; stroke-width: 2px;"/>
        <path d="m37.86,33.54c-.08,1.21-.05,2.42.08,3.62.43,1.3.95,2.57,1.56,3.79.42,1.12,2.32,1.89,3.16,2.37l6.25,3.28c.88.49,1.44,1.4,1.5,2.4-.02.9-.77,1.62-1.67,1.6,0,0-5.04-.31-7.5-.74-3.49-.61-13.22-3.28-13.22-3.28-.92-.24-1.26-.58-1.1-1.22s.57-.74,1.48-.76h10.03" style="fill: none; stroke: #000; stroke-linecap: round; stroke-linejoin: round; stroke-width: 2px;"/>
      </g>
    </g>
  </g>
  <g id="Layer_5" data-name="Layer 5">
    <g>
      <g id="color-4" data-name="color">
        <path d="m51.78,39.88c-1-2,4-5,4-8,0-1.6-1-6-5-7-1.72-.43-3.98-1.44-6.17-1.31-9.52.56-15.21,2.94-18.83,2-.97-.25-8.81-8-9.38-8.69l-3.5-3.41-.46,3.7c-3.17,2.12-3.66,3.71-8.66,7.71-.55.44,1.31,2.17,2,2,4-1,8-1,8-1,0,0,1.9,6.18,2,8,.11,2,0,6,1,7,1.58,1.58,3,2,3,2l-3,6c-.63,1.26-.35,2.65,0,3,2,2,8,4,8,4l1-3s-5-2-5-3c0-1.13,4-4,5-6,0,0,6.56-.4,9-1,1.69-.41,7.04-2.8,10.61-4.43,1.78,2.58,4.18,5.71,4.18,6.43l-4,5,2,1s5-4,6-5c.35-.35.19-1.54,0-2-.54-1.31-1.16-2.74-1.79-4h0Z" style="fill: #a57939;"/>
        <path d="m45.78,39.88s-2.14,6.79-3,9c-.89,2.3-2,8-2,8l4.17-1.17,2.42-4.92-1.25-.17v-2.58l2.92-3.04" style="fill: #6a462f;"/>
        <path d="m53.78,25.88h2s7,3,6,7c-.73,2.91-4.13,5.58.87,10.58,0,0,.71,2.83-2.04,2.04,0,0-2.38-.93-3.38-4.08-1.75-5.54,1.65-8.18,1-10.21-.38-1.17-2.33-1.12-2.33-1.12" style="fill: #6a462f;"/>
        <path d="m19.06,43l-1.09,2.94c-.62.22-4.42,1.53-4.28,2.72.22,1.84-.91,7.22-.91,7.22l-2,1s-2-8-2-9c0-.79,0-2,1-3s6-4,6-4" style="fill: #6a462f;"/>
      </g>
      <g id="skin-5" data-name="skin">
        <circle cx="19.44" cy="12.4" r="2.97" style="fill: #fcea2b;"/>
        <path d="m31,15.83l6.51,1.07-8.31,4.81-.21,2.03.29,9.37,3.5-.73.1-7.25c6.8-2.59,12.3-5.42,10.5-9.56l-2.19-3.9-14.98.16-1.44,2.53,3.02,4.31-5.51.44c-.48.85.06,2.7,1.09,2.75,1.93.12,3.8.11,5.26-.24,1.92-.58,2.77-1.59,2.97-3.33-.6-2.45-.32-1.73-.6-2.45h0Z" style="fill: #fcea2b;"/>
      </g>
      <g id="line-5" data-name="line">
        <circle cx="19.38" cy="11.69" r="2.97" style="fill: none; stroke: #000; stroke-miterlimit: 10; stroke-width: 2px;"/>
        <path d="m23.15,19.47c3.05-.03,6.1.48,4.51-1.84-2.22-2.71-2.71-1.7-2.42-4.75.42-1.01,1.38-2,2.48-2.02,4.44-.11,8.63.79,12.82,1.6.81.26,1.7.64,2.31,1.7.54.96.8,1.67.71,2.77,0,0-.11,1.84-.74,2.66-2.23,2.89-8.52,4.08-9.84,5.26l-.25,4.9c-.07,1.49-.2,3.37-1.57,3.5-1.68.16-2.16-1.29-2.2-2.85,0,0-.17-5.07-.18-5.87,0-.8.79-2.35,1.54-3.05s.22-.41,1.89-1.17l4.75-2.15c1.49-1.19.91-1.55.08-1.78-.84-.23-5.13-.65-5.13-.65" style="fill: none; stroke: #000; stroke-linecap: round; stroke-linejoin: round; stroke-width: 2px;"/>
        <path d="m24.78,25.88c-1-1-3.45-4.45-6-7-1-1-3-2-3-2l-2-3" style="fill: none; stroke: #000; stroke-linecap: round; stroke-linejoin: round; stroke-width: 2px;"/>
        <path d="m43.78,30.88s-1,3,0,5c1.19,2.38,5.79,8,5.79,9l-2.79,3s-1.14.75-1.12,1.38c.04,1.92,1.92,1.62,1.92,1.62,0,0,6.38-5.56,6.21-6-.51-1.32-1.37-3.74-2-5-1-2,4-5,4-8,0-1.6-1-6-5-7-1.72-.43-3.77-.49-5.96-.35" style="fill: none; stroke: #000; stroke-linecap: round; stroke-linejoin: round; stroke-width: 2px;"/>
        <path d="m21.78,54.88c-1.8-.76-3.96-1.96-5-3-.35-.35-.63-1.74,0-3l3-6s-1.42-.42-3-2c-1-1-.89-5-1-7-.1-1.82-2-8-2-8,0,0-4,0-8,1-.69.17-2.55-1.56-2-2q5-4,8-6" style="fill: none; stroke: #000; stroke-linecap: round; stroke-linejoin: round; stroke-width: 2px;"/>
        <path d="m23.78,51.88s.55.53,1.23,1.17c.68.64.69,1.72.04,2.4-.65.68-1.66.83-2.23.33s-1.04-.9-1.04-.9" style="fill: none; stroke: #000; stroke-linecap: round; stroke-linejoin: round; stroke-width: 2px;"/>
        <path d="m44.78,38.88s-7.39,3.36-10,4c-2.44.6-9,1-9,1-4,4-5,6-5,6,0,0,1.63,1.34,3,2" style="fill: none; stroke: #000; stroke-linecap: round; stroke-linejoin: round; stroke-width: 2px;"/>
        <path d="m45.78,39.88s-2.14,6.79-3,9c-.47,1.21-.62,1.92-1.54,3.96-.82,1.82-.91,2.12-.91,2.12-.3,1.06.13,2.15.95,2.42s1.9-.31,2.39-1.29l1.05-2.11" style="fill: none; stroke: #000; stroke-linecap: round; stroke-linejoin: round; stroke-width: 2px;"/>
        <path d="m12.78,52.88v2c0,1.1-.67,2-1.5,2s-1.5-.7-1.5-1.56v-2.4" style="fill: none; stroke: #000; stroke-linecap: round; stroke-linejoin: round; stroke-width: 2px;"/>
        <path d="m15.78,40.88s-5,3-6,4-1,2.21-1,3c0,.52.48,2.85,1,5.04" style="fill: none; stroke: #000; stroke-linecap: round; stroke-linejoin: round; stroke-width: 2px;"/>
        <path d="m53.46,25.91l2.32-.03s7,3,6,7c-.73,2.91-5,6,0,11" style="fill: none; stroke: #000; stroke-linecap: round; stroke-linejoin: round; stroke-width: 2px;"/>
        <line x1="12.78" y1="48.88" x2="12.78" y2="52.88" style="fill: none; stroke: #000; stroke-linecap: round; stroke-linejoin: round; stroke-width: 2px;"/>
      </g>
    </g>
  </g>
  <g id="Layer_6" data-name="Layer 6">
    <g>
      <g id="skin-6" data-name="skin">
        <path d="m56.07,48.13c-9.89,8.51-23.76,10.53-41.84,10.42,0,0-3.37,1.04-4.14-3.21,0,0-.69-18.83,3.43-32.04,0,0-.18-5.39.03-8.92.04-.61.3-1.17.75-1.58,5.19-4.79,7.53-5.5,7.53-5.5l7.54-1.33c1.19.82,3.81,3.77,3.38,9.01l.1-.36,2.9.81c1.01.31,1.68,1.37,1.66,2.39,0,1.05-2.53,1.84-2.53,1.84l-5.51,1.25c-1.65,2.59-5.04,2.86-6.56,2.79-.08-.22-.53-.02-.17,0,.54,1.35,1.16,4.61,1.73,10.64l.16,1.68c.04.47.29,4.26.35,6.74,1.63-3.98,5.98-11.32,14.18-12.48,12.14-1.73,18.18,7.66,18.18,7.66,0,0,.21.25.47.69,1.86,3.11,1.12,7.13-1.62,9.5Z" style="fill: #fcea2b;"/>
        <path d="m23.08,23.47c-.37-.02-.67-.05-.85-.08l.58-.44c.1.13.19.3.27.52Z" style="fill: #fcea2b;"/>
        <path d="m23.08,23.47c-.37-.02-.67-.05-.85-.08l.58-.44c.1.13.19.3.27.52Z" style="fill: #fcea2b;"/>
      </g>
      <g id="skin-shadow">
        <path d="m18.94,22.94s4.82-4.49,1.46-5.75l11.5-.38.6-1.03.2-1.66c.97.16,3.03.85,3.28.91,0,0,2.17,1.69.4,3.69l-7.01,2.01s-4.26,3.43-10.44,2.2Z" style="fill: #f1b31c;"/>
        <path d="m18.94,22.94c.72,8.31,2.31,23.11,1.87,25.01-.04.63.59.73.91.27.75-.6,2.49-2.34,3.44-4.68,0-5.19-.6-11.23-2-20.07-.51-1.43-2.65-1.41-4.22-.53Z" style="fill: #f1b31c;"/>
        <path d="m42.63,30.04s9.23,6.29,2.8,14.8c0,0,1.92,7.68.14,8.88s18.59-5,10.94-16.73c0,0-4.65-6.83-13.88-6.95Z" style="fill: #f1b31c;"/>
      </g>
      <g id="line-6" data-name="line">
        <path d="m23.94,35.85c-.39-3.86-1.02-11.47-1.76-12.4,0,0,4.69,1,7.04-2.68" style="fill: none; stroke: #000; stroke-linecap: round; stroke-linejoin: round; stroke-width: 2px;"/>
        <path d="m30.28,47.16s9.74,2.43,17.39-3.9" style="fill: none; stroke: #000; stroke-linecap: round; stroke-linejoin: round; stroke-width: 2px;"/>
        <path d="m24.17,44.94s2.59-13.05,14.76-14.78c12.17-1.73,18.22,7.68,18.22,7.68,0,0,.21.25.47.69,1.87,3.12,1.13,7.15-1.63,9.52-9.91,8.53-23.82,10.56-41.93,10.45,0,0-3.38,1.03-4.16-3.22,0,0-.69-18.88,3.44-32.12,0,0-.18-5.41.03-8.95.03-.6.3-1.17.75-1.58,5.21-4.81,7.55-5.51,7.55-5.51l7.56-1.34c1.29.89,4.26,4.27,3.22,10.36" style="fill: none; stroke: #000; stroke-linecap: round; stroke-linejoin: round; stroke-width: 2px;"/>
        <path d="m22.25,16.69s1.64,2.34,3.27-.26v-2.71l-.41-1.49-.33-.25" style="fill: none; stroke: #000; stroke-linecap: round; stroke-linejoin: round; stroke-width: 2px;"/>
        <path d="m25.81,16.69s1.64,2.34,3.27-.26v-2.71l-.79-1.92" style="fill: none; stroke: #000; stroke-linecap: round; stroke-linejoin: round; stroke-width: 2px;"/>
        <path d="m32.37,16.44c-1.77,1.7-2.99,0-2.99,0" style="fill: none; stroke: #000; stroke-linecap: round; stroke-linejoin: round; stroke-width: 2px;"/>
        <path d="m17.48,14.13c.45.4,1.03,1.1,1.15,2.19.03.26.12.51.3.7.54.54,1.77,1.37,2.99-.58v-2.71l-.57-1.14" style="fill: none; stroke: #000; stroke-linecap: round; stroke-linejoin: round; stroke-width: 2px;"/>
        <path d="m35.56,15.79c1.74.51,2.04,3.09-.63,3.7l-5.7,1.29" style="fill: none; stroke: #000; stroke-linecap: round; stroke-linejoin: round; stroke-width: 2px;"/>
      </g>
    </g>
  </g>
  <g id="Layer_7" data-name="Layer 7">
    <g>
      <g id="color-5" data-name="color">
        <circle cx="32.03" cy="33.83" r="29.91" style="fill: #f4aa41;"/>
        <path d="m47.19,8.05c4.95,5.36,8.04,12.48,8.04,20.42,0,16.5-13.41,29.91-29.91,29.91-5.57,0-10.72-1.55-15.16-4.12,5.47,5.77,13.3,9.49,21.86,9.49,16.5,0,29.91-13.41,29.91-29.91,0-11.03-5.88-20.62-14.75-25.78Z" style="fill: #e27022;"/>
      </g>
      <g id="line-7" data-name="line">
        <line x1="2.12" y1="33.83" x2="61.94" y2="33.83" style="fill: none; stroke: #000; stroke-linecap: round; stroke-linejoin: round; stroke-width: 2px;"/>
        <line x1="32.03" y1="3.93" x2="32.03" y2="63.74" style="fill: none; stroke: #000; stroke-linecap: round; stroke-linejoin: round; stroke-width: 2px;"/>
        <path d="m51.83,56.21c-5.77-5.77-9.28-13.61-9.28-22.48s3.51-16.71,9.28-22.48" style="fill: none; stroke: #000; stroke-linecap: round; stroke-linejoin: round; stroke-width: 2px;"/>
        <path d="m12.33,11.35c5.77,5.77,9.28,13.72,9.28,22.48s-3.51,16.71-9.28,22.48" style="fill: none; stroke: #000; stroke-linecap: round; stroke-linejoin: round; stroke-width: 2px;"/>
        <circle cx="32.03" cy="33.83" r="29.91" style="fill: none; stroke: #000; stroke-linecap: round; stroke-linejoin: round; stroke-width: 2px;"/>
      </g>
    </g>
  </g>
  <g id="Layer_8" data-name="Layer 8">
    <g>
      <g id="line-supplement">
        <line x1="30.09" y1="2.62" x2="30.09" y2="64.76" style="fill: none; stroke: #000; stroke-linecap: round; stroke-linejoin: round; stroke-width: 2px;"/>
        <line x1="32.93" y1="33.64" x2="27.26" y2="33.64" style="fill: none; stroke: #000; stroke-linecap: round; stroke-linejoin: round; stroke-width: 2px;"/>
        <line x1="32.93" y1="28.75" x2="27.26" y2="28.75" style="fill: none; stroke: #000; stroke-linecap: round; stroke-linejoin: round; stroke-width: 2px;"/>
        <line x1="32.93" y1="38.53" x2="27.26" y2="38.53" style="fill: none; stroke: #000; stroke-linecap: round; stroke-linejoin: round; stroke-width: 2px;"/>
        <line x1="19.92" y1="55.85" x2="40.37" y2="55.85" style="fill: none; stroke: #000; stroke-linecap: round; stroke-linejoin: round; stroke-width: 2px;"/>
        <line x1="17.96" y1="14.17" x2="42.23" y2="14.17" style="fill: none; stroke: #000; stroke-linecap: round; stroke-linejoin: round; stroke-width: 2px;"/>
      </g>
      <g id="color-6" data-name="color">
        <path d="m30,2.42c-10.76,6.26-17.91,17.91-17.91,31.22s7.24,25.05,18.01,31.31h.1c10.67-6.26,17.91-17.91,17.91-31.22S40.86,8.69,30,2.42" style="fill: #a57939;"/>
        <path d="m35.67,6.44c5.68,7.73,9,18.4,7.24,28.48-2.06,11.45-9.3,20.75-18.79,25.74,1.86,1.66,3.82,3.13,5.97,4.4h.1c10.76-6.26,17.91-17.91,17.91-31.22,0-10.57-5.19-20.75-12.43-27.4Z" style="fill: #6a462f;"/>
        <line x1="30.09" y1="2.62" x2="30.09" y2="64.76" style="fill: none; stroke: #fff; stroke-linecap: round; stroke-linejoin: round; stroke-width: 2px;"/>
        <line x1="32.93" y1="33.64" x2="27.26" y2="33.64" style="fill: none; stroke: #fff; stroke-linecap: round; stroke-linejoin: round; stroke-width: 2px;"/>
        <line x1="32.93" y1="28.75" x2="27.26" y2="28.75" style="fill: none; stroke: #fff; stroke-linecap: round; stroke-linejoin: round; stroke-width: 2px;"/>
        <line x1="32.93" y1="38.53" x2="27.26" y2="38.53" style="fill: none; stroke: #fff; stroke-linecap: round; stroke-linejoin: round; stroke-width: 2px;"/>
        <line x1="19.92" y1="55.85" x2="40.37" y2="55.85" style="fill: none; stroke: #fff; stroke-linecap: round; stroke-linejoin: round; stroke-width: 2px;"/>
        <line x1="17.96" y1="14.17" x2="42.23" y2="14.17" style="fill: none; stroke: #fff; stroke-linecap: round; stroke-linejoin: round; stroke-width: 2px;"/>
      </g>
      <g id="line-8" data-name="line">
        <path d="m30,2.42c-10.76,6.26-17.91,17.91-17.91,31.22s7.24,25.05,18.01,31.31h.1c10.67-6.26,17.91-17.91,17.91-31.22S40.86,8.69,30,2.42" style="fill: none; stroke: #000; stroke-linecap: round; stroke-linejoin: round; stroke-width: 2px;"/>
      </g>
    </g>
  </g>
  <g id="Layer_9" data-name="Layer 9">
    <g>
      <g id="skin-7" data-name="skin">
        <path d="m32,19.65l.02,24.33s-3.69.36-4.31,1.27c-1.71,2.53-1.4,16.7-1.4,16.7l-3.89-.61-2.5-20.58,5.92-4.48s-1.83-7.09-2.43-10.06c-.33-1.6-1.56-1.71-2.04-1.28-.61.56-2.3,4.26-4.61,4.26s-3.58-.67-4.23-1.73c-1.66-2.8-3.97-11.99-3.97-11.99l3.2-.67,2.56,9.72,1.79,1.2,3.97-4.93,4.48-1.87,7.43.7Z" style="fill: #fcea2b;"/>
        <path d="m31.86,19.65l.02,24.33s3.65.36,4.27,1.27c1.71,2.53,1.4,16.7,1.4,16.7l3.89-.61,2.5-20.58-5.92-4.48s1.83-7.09,2.43-10.06c.33-1.6,1.56-1.71,2.04-1.28.61.56,2.3,4.26,4.61,4.26s3.58-.67,4.23-1.73c1.66-2.8,3.97-11.99,3.97-11.99l-3.2-.67-2.56,9.72-1.79,1.2-3.97-4.93-4.48-1.87-7.44.7Z" style="fill: #fcea2b;"/>
        <circle cx="32.05" cy="9.9" r="4.13" style="fill: #fcea2b;"/>
      </g>
      <g id="color-7" data-name="color">
        <path d="m6.83,26.83c-.03.69-.57,1.25-1.26,1.31h-2.52c-.69-.06-1.23-.62-1.26-1.31V5.83c.03-.69.57-1.25,1.26-1.31h2.52c.69.06,1.23.62,1.26,1.31v20.99Z" style="fill: #9b9b9a;"/>
        <path d="m62.31,26.83c-.03.69-.57,1.25-1.26,1.31h-2.52c-.69-.06-1.23-.62-1.26-1.31V5.83c.03-.69.57-1.25,1.26-1.31h2.52c.69.06,1.23.62,1.26,1.31v20.99Z" style="fill: #9b9b9a;"/>
      </g>
      <g id="line-9" data-name="line">
        <path d="m6.83,26.83c-.03.69-.57,1.25-1.26,1.31h-2.52c-.69-.06-1.23-.62-1.26-1.31V5.83c.03-.69.57-1.25,1.26-1.31h2.52c.69.06,1.23.62,1.26,1.31v20.99Z" style="fill: none; stroke: #000; stroke-linecap: round; stroke-linejoin: round; stroke-width: 2.04px;"/>
        <path d="m62.31,26.83c-.03.69-.57,1.25-1.26,1.31h-2.52c-.69-.06-1.23-.62-1.26-1.31V5.83c.03-.69.57-1.25,1.26-1.31h2.52c.69.06,1.23.62,1.26,1.31v20.99Z" style="fill: none; stroke: #000; stroke-linecap: round; stroke-linejoin: round; stroke-width: 2.04px;"/>
        <path d="m39.61,15.02c5.04,0,17.65,1.31,17.65,1.31" style="fill: none; stroke: #000; stroke-linecap: round; stroke-linejoin: round; stroke-width: 2.05px;"/>
        <path d="m6.83,16.33c5.85-.82,11.75-1.25,17.65-1.31" style="fill: none; stroke: #000; stroke-linecap: round; stroke-linejoin: round; stroke-width: 2.03px;"/>
        <path d="m11.87,16.33l2.65,8.13c.63,2.1,2.14,2.23,3.4.52l1.89-2.76c1.42-1.82,3.62-2.84,5.93-2.76l2.52.39c2.51.26,5.05.26,7.57,0l2.52-.39c2.32-.18,4.57.87,5.93,2.76l1.89,2.76c1.26,1.71,2.77,1.57,3.4-.52l2.65-8.13" style="fill: none; stroke: #000; stroke-linecap: round; stroke-linejoin: round; stroke-width: 2.04px;"/>
        <path d="m24.48,25.51s.25,1.44.63,3.28c.37,1.95.58,3.92.63,5.9.1.84-.16,1.67-.71,2.31-1.06.84-2.2,1.58-3.41,2.2-1.1.8-1.68,2.13-1.51,3.48l1.97,16.77c-.04,1.41.99,2.62,2.4,2.8,1.39,0,2.13-.95,2.13-2.39,0,0,0-10.79.13-12.15.06-.9.35-1.76.84-2.52.38-.49.9-.85,1.5-1.03.88-.24,1.8-.36,2.71-.36.94,0,1.87.12,2.78.36.59.18,1.11.54,1.5,1.03.49.75.78,1.62.83,2.52.12,1.36.13,12.15.13,12.15,0,1.44.75,2.39,2.13,2.39,1.4-.17,2.44-1.38,2.4-2.79l1.97-16.77c.17-1.35-.41-2.69-1.51-3.48-1.21-.62-2.35-1.35-3.41-2.2-.55-.64-.81-1.48-.71-2.31.05-1.98.26-3.96.63-5.9.38-1.84.63-3.28.63-3.28" style="fill: none; stroke: #000; stroke-linecap: round; stroke-linejoin: round; stroke-width: 2px;"/>
        <circle cx="32.05" cy="9.71" r="4.13" style="fill: none; stroke: #000; stroke-miterlimit: 10; stroke-width: 2.04px;"/>
        <path d="m37.14,6.77s.8-.43,1.31-.05c.6.45,1.1,2.21,1.82,2.95.71.74,1.64,1.22,2.65,1.38" style="fill: none; stroke: #000; stroke-linecap: round; stroke-linejoin: round; stroke-width: 2px;"/>
      </g>
    </g>
  </g>
  <g id="Layer_10" data-name="Layer 10">
    <g>
      <g id="color-8" data-name="color">
        <polyline points="20.84 34.61 4.55 29.22 0 30.63 10.61 40.23" style="fill: #9b9b9a;"/>
        <path d="m39.92,25.39l13.99-4.76s13.85-.23,10.6,3.34c-3.25,3.57-26.08,12.51-32.83,15.03-6.75,2.52-15.09,3.85-20.86,3.96-5.05.1.6-2.97.6-2.97,0,0,6.42-3.64,9.26-4.88l2.7-2" style="fill: #d0cfce;"/>
        <polyline points="44.49 30.17 19.25 27.31 17.1 28.84 34.96 35.21" style="fill: #9b9b9a;"/>
      </g>
      <g id="line-10" data-name="line">
        <polyline points="16.71 33.98 3.96 29.46 .81 30.56 9.19 38.07" style="fill: none; stroke: #000; stroke-linecap: round; stroke-linejoin: round; stroke-width: 1.56px;"/>
        <polyline points="44.49 29.41 19.25 27.31 17.1 28.84 34.29 34.97" style="fill: none; stroke: #000; stroke-linecap: round; stroke-linejoin: round; stroke-width: 1.56px;"/>
        <path d="m40.52,25.96l11.44-4.6c1.36-.55,2.81-.8,4.28-.76,3.8.12,10.66.68,8.27,3.31-3.25,3.57-26.08,12.51-32.83,15.03s-15.09,3.85-20.86,3.96c-5.05.1.6-2.97.6-2.97,0,0,6.42-3.64,9.26-4.88l2.86-1.24" style="fill: none; stroke: #000; stroke-linecap: round; stroke-linejoin: round; stroke-width: 1.56px;"/>
      </g>
    </g>
  </g>
  <g id="Layer_11" data-name="Layer 11">
    <g>
      <g id="color-9" data-name="color">
        <circle cx="9.34" cy="57.24" r="6.14" style="fill: #d0cfce;"/>
        <circle cx="54.21" cy="57.24" r="6.14" style="fill: #d0cfce;"/>
        <path d="m20.29,53.55h27.78v.72c0,2.04-1.5,3.69-3.36,3.69h-21.07c-1.85,0-3.36-1.65-3.36-3.69v-.72Z" style="fill: #ea5a47;"/>
        <path d="m20.86,10.93l-1.3-.28c-.66-.15-1.08-.8-.94-1.46l.55-2.5c.15-.66.8-1.08,1.46-.94l1.3.28c.66.15,1.08.8.94,1.46l-.55,2.5c-.15.66-.8,1.08-1.46.94Z" style="fill: #d0cfce;"/>
        <path d="m36.65,9.07l-.31,1.63c-.12.63-.73,1.05-1.37.93l-5.08-.96c-.63-.12-1.05-.73-.93-1.37l.31-1.63c.12-.63.73-1.05,1.37-.93l5.08.96c.63.12,1.05.73.93,1.37Z" style="fill: #ea5a47;"/>
        <path d="m12.68,4.22l-.31,1.63c-.12.63-.73,1.05-1.36.93l-5.06-.96c-.63-.12-1.05-.73-.93-1.36l.31-1.63c.12-.63.73-1.05,1.36-.93l5.06.96c.63.12,1.05.73.93,1.36Z" style="fill: #ea5a47;"/>
      </g>
      <g id="line-11" data-name="line">
        <line x1="22.97" y1="7.11" x2="28.94" y2="8.28" style="fill: none; stroke: #000; stroke-linecap: round; stroke-linejoin: round; stroke-width: 2px;"/>
        <line x1="13.12" y1="5.17" x2="19.18" y2="6.36" style="fill: none; stroke: #000; stroke-linecap: round; stroke-linejoin: round; stroke-width: 2px;"/>
        <circle cx="9.34" cy="57.24" r="6.14" style="fill: none; stroke: #000; stroke-miterlimit: 10; stroke-width: 2px;"/>
        <circle cx="54.21" cy="57.24" r="6.14" style="fill: none; stroke: #000; stroke-miterlimit: 10; stroke-width: 2px;"/>
        <polyline points="20.03 10.86 11.29 48.76 9.34 57.24" style="fill: none; stroke: #000; stroke-linecap: round; stroke-linejoin: round; stroke-width: 2px;"/>
        <path d="m20.29,53.55h27.78v.72c0,2.04-1.5,3.69-3.36,3.69h-21.07c-1.85,0-3.36-1.65-3.36-3.69v-.72Z" style="fill: none; stroke: #000; stroke-linecap: round; stroke-linejoin: round; stroke-width: 1.91px;"/>
        <path d="m22.89,7.09c.02.13,0,.27-.02.4l-.55,2.5c-.15.66-.8,1.08-1.46.94l-1.3-.28c-.66-.15-1.08-.8-.94-1.46l.55-2.5c.02-.11.06-.21.11-.3" style="fill: none; stroke: #000; stroke-linecap: round; stroke-linejoin: round; stroke-width: 2px;"/>
        <path d="m19.27,6.38c.25-.48.8-.76,1.35-.64l1.3.28c.53.12.9.55.96,1.06" style="fill: none; stroke: #000; stroke-linecap: round; stroke-linejoin: round; stroke-width: 2px;"/>
        <line x1="14.04" y1="38.63" x2="20.29" y2="53.55" style="fill: none; stroke: #000; stroke-linecap: round; stroke-linejoin: round; stroke-width: 2px;"/>
        <path d="m36.65,9.07l-.31,1.63c-.12.63-.73,1.05-1.37.93l-5.08-.96c-.63-.12-1.05-.73-.93-1.37l.31-1.63c.12-.63.73-1.05,1.37-.93l5.08.96c.63.12,1.05.73.93,1.37Z" style="fill: none; stroke: #000; stroke-linecap: round; stroke-linejoin: round; stroke-width: 1.91px;"/>
        <path d="m12.68,4.22l-.31,1.63c-.12.63-.73,1.05-1.36.93l-5.06-.96c-.63-.12-1.05-.73-.93-1.36l.31-1.63c.12-.63.73-1.05,1.36-.93l5.06.96c.63.12,1.05.73.93,1.36Z" style="fill: none; stroke: #000; stroke-linecap: round; stroke-linejoin: round; stroke-width: 1.91px;"/>
      </g>
    </g>
  </g>
  <g id="Layer_12" data-name="Layer 12">
    <g>
      <g id="color-10" data-name="color">
        <path d="m7.48,65.79v-5.17c0-6.47,6.47-11.64,12.93-11.64,7.76,6.47,15.52,6.47,23.28,0,6.47,0,12.93,5.17,12.93,11.64v5.17" style="fill: #92d3f5;"/>
      </g>
      <g id="skin-8" data-name="skin">
        <path d="m18.34,24.93v1.29c0,9.83,5.95,17.59,13.58,17.59s13.58-7.76,13.58-17.59c0-6.08-2.33-9.7-6.85-14.36-3.65,2.84-7.54,5.35-11.64,7.5-3.36,1.81-8.15,4.53-8.66,5.56Z" style="fill: #fcea2b;"/>
      </g>
      <g id="hair-2" data-name="hair">
        <path d="m54.42,31c-.52-1.16-1.03-2.2-1.55-3.36-1.94-4.27-2.59-5.82-2.97-13.58,0-4.79-4.91-8.79-9.7-9.18-.34,0-.67-.13-.91-.39-2.48-2.42-5.86-3.68-9.31-3.49-8.02,0-14.74,4.4-16.42,10.6-.65,2.62-.91,5.32-.78,8.02.24,2.63-.11,5.28-1.03,7.76-.26,1-.75,1.93-1.42,2.72-4.79,5.43-1.42,17.98-1.55,17.98,1.44,1.31,3,2.48,4.66,3.49,2.03-1.54,4.45-2.48,6.98-2.72,8.02,6.47,16.17,6.47,24.18,0,1.96.11,3.84.79,5.43,1.94,1.37-.89,2.67-1.88,3.88-2.97,1.55-.91,4.01-10.73.52-16.81Zm-17.2,6.34c0,.91-2.07,2.59-5.17,2.59s-5.17-1.68-5.17-2.59v-2.46c0-.71.58-1.29,1.29-1.29l3.88,1.94,4.01-1.94c.67-.04,1.25.47,1.29,1.15,0,.05,0,.1,0,.15v2.46h-.13Zm9.05-12.93c-.63,2.59-1.54,5.11-2.72,7.5,0,0-2.46,3.88-3.49-1.55-5.54-1.55-11.4-1.55-16.94,0-.91,5.43-3.49,1.55-3.49,1.55-.88-1.69-1.57-3.47-2.07-5.3v-1.42c-.13-1.68,16.04-8.54,20.95-14.36,3.96,3.45,6.72,8.07,7.89,13.19l-.13.39Z" style="fill: #f1b31c;"/>
      </g>
      <g id="line-12" data-name="line">
        <path d="m9.8,47.17c-4.79-7.63-.78-13.06,1.55-19.01,2.07-5.43-.26-8.41,1.68-15.52S22.48,1,30.75,1c6.98,0,10.35,3.88,10.35,3.88,5.39.44,9.55,4.93,9.57,10.35.52,9.31,1.29,9.31,4.4,16.55,2.16,5,1.46,10.78-1.81,15.13" style="fill: none; stroke: #000; stroke-linecap: round; stroke-linejoin: round; stroke-width: 2px;"/>
        <path d="m7.48,64.37v-3.88c0-6.47,6.47-11.64,12.93-11.64,7.76,6.47,15.52,6.47,23.28,0,6.47,0,12.93,5.17,12.93,11.64v3.88" style="fill: none; stroke: #000; stroke-linecap: round; stroke-linejoin: round; stroke-width: 2px;"/>
        <path d="m39.81,24.8c0,1.43-1.16,2.59-2.59,2.59s-2.59-1.16-2.59-2.59,1.16-2.59,2.59-2.59c1.43,0,2.58,1.16,2.59,2.59"/>
        <path d="m29.46,24.8c0,1.43-1.16,2.59-2.59,2.59s-2.59-1.16-2.59-2.59,1.16-2.59,2.59-2.59c1.43,0,2.58,1.16,2.59,2.59"/>
        <path d="m46.27,26.87c0-6.47-2.59-10.35-7.76-15.52-5.17,5.17-20.69,11.64-20.69,14.23v1.29" style="fill: none; stroke: #000; stroke-linejoin: round; stroke-width: 2px;"/>
        <path d="m37.09,34.11c.28.64,0,1.39-.65,1.68-1.4.72-2.95,1.08-4.53,1.03-1.52-.02-3.02-.37-4.4-1.03-.64-.29-.93-1.04-.65-1.68.21-.59.87-.9,1.46-.68.03.01.06.02.09.04q.13,0,.13.13c2.04,1.16,4.55,1.16,6.6,0,.68-.37,1.53-.14,1.94.52Z"/>
        <path d="m17.69,26.99c-.26,4.01-.39,8.54,1.55,12.03.76,1.27,1.67,2.44,2.72,3.49,2.66,2.26,6.08,3.42,9.57,3.23" style="fill: none; stroke: #000; stroke-linecap: round; stroke-linejoin: round; stroke-width: 2px;"/>
        <path d="m46.27,26.99c-.36,1.87-1.21,3.61-2.46,5.04,0,0-2.46,3.88-3.49-1.55-5.54-1.55-11.4-1.55-16.94,0-1.03,5.43-3.49,1.55-3.49,1.55-1.01-1.53-1.71-3.25-2.07-5.04" style="fill: none; stroke: #000; stroke-linecap: round; stroke-linejoin: round; stroke-width: 2px;"/>
        <path d="m46.27,27.51c.42,3.96-.29,7.95-2.07,11.51-.67,1.33-1.6,2.51-2.72,3.49-2.62,2.33-6.07,3.5-9.57,3.23h-.39" style="fill: none; stroke: #000; stroke-linecap: round; stroke-linejoin: round; stroke-width: 2px;"/>
      </g>
    </g>
  </g>
  <g id="Layer_13" data-name="Layer 13">
    <g>
      <g id="color-11" data-name="color">
        <path d="m58.16,64.93c.21-.02,1.03-3.04,1.04-6.75.02-5.59-3.09-12.76-15.28-13.44-4.33,2.87-8.03,4.86-12.2,4.85h.17c-4.17,0-7.87-1.98-12.2-4.85-4.81,0-8.09,1.76-10.14,4.25-4.89,5.92-3.41,15.94-3.41,15.94" style="fill: #8967aa;"/>
        <path d="m33.92,62.02l-.68-.41c-10.75,0-19.46-9.66-19.46-20.41l-1.36-11.65v-9.06C12.42,9.74,22.49,1.02,33.24,1.02h0c10.75,0,20.68,8.71,20.68,19.46l.14,18.01c0,1.23-.94,5.14-1.19,6.3,3.06,3.34,2.45,6.64-3.75,12.18-3.78,3.37-9.97,5.06-15.2,5.06Z" style="fill: #b399c8;"/>
        <rect x="26.86" y="56.77" width="21.38" height="8.19" style="fill: #b399c8;"/>
      </g>
      <g id="skin-9" data-name="skin">
        <path d="m48.08,25.99c-3.11-8.98-8.34-12.48-15.37-17.31-5.42,5.2-10.57,6.52-15.37,17.31,0,10.61,6.88,17.04,15.37,17.04s15.37-6.43,15.37-17.04Z" style="fill: #fcea2b;"/>
      </g>
      <g id="line-13" data-name="line">
        <path d="m40.84,21.86c0,1.5-1.22,2.71-2.71,2.71s-2.71-1.21-2.71-2.71,1.22-2.71,2.71-2.71,2.71,1.22,2.71,2.71"/>
        <path d="m30,21.86c0,1.5-1.22,2.71-2.71,2.71s-2.71-1.21-2.71-2.71,1.22-2.71,2.71-2.71,2.71,1.22,2.71,2.71"/>
        <path d="m32.71,35.41c-1.56,0-3.12-.39-4.67-1.16-.67-.33-.94-1.15-.61-1.82.33-.67,1.15-.94,1.82-.61,2.33,1.16,4.59,1.16,6.92,0,.67-.33,1.48-.06,1.82.61.33.67.06,1.48-.61,1.82-1.55.77-3.11,1.16-4.67,1.16Z"/>
        <path d="m57.54,54.86c1.36,4.4.68,8.81.68,8.81" style="fill: none; stroke: #000; stroke-linecap: round; stroke-linejoin: round; stroke-width: 2px;"/>
        <path d="m6.88,63.67s-1.49-9.67,4.35-14.68" style="fill: none; stroke: #000; stroke-linecap: round; stroke-linejoin: round; stroke-width: 2px;"/>
        <path d="m32.88,9.08h-.33s-17.93,10.07-13.81,22.6c0,0,3.16,11.23,13.97,11.23s13.97-11.23,13.97-11.23c4.13-12.54-13.81-22.6-13.81-22.6Z" style="fill: none; stroke: #000; stroke-linecap: round; stroke-linejoin: round; stroke-width: 2px;"/>
        <path d="m32.71,1.03S14.16.17,12.64,21.06c-1.52,20.89,2.76,25.69,2.76,25.69,0,0,5.29,13.73,18.5,15.32,13.21,1.59,21.13-11.91,21.13-11.91,0,0,2.59-6.59-7.73-7.25-2.17,1.36-8.4,5.76-14.59,0" style="fill: none; stroke: #000; stroke-linecap: round; stroke-linejoin: round; stroke-width: 2px;"/>
        <path d="m33,1.03s18.55-.86,20.07,20.03c.42,5.75.4,10.29.15,13.84l-.49,3.85" style="fill: none; stroke: #000; stroke-linecap: round; stroke-linejoin: round; stroke-width: 2px;"/>
        <line x1="27.29" y1="60.07" x2="27.29" y2="63.66" style="fill: none; stroke: #000; stroke-linecap: round; stroke-linejoin: round; stroke-width: 2px;"/>
        <line x1="48.24" y1="57.68" x2="48.24" y2="63.66" style="fill: none; stroke: #000; stroke-linecap: round; stroke-linejoin: round; stroke-width: 2px;"/>
        <path d="m49.87,48.02s-4.7,7.68-14.69,6.38c-7.88-1.03-21.43-10.95-22.85-23.75" style="fill: none; stroke: #000; stroke-linecap: round; stroke-linejoin: round; stroke-width: 2px;"/>
      </g>
    </g>
  </g>
  <g id="Layer_14" data-name="Layer 14">
    <g>
      <g id="color-12" data-name="color">
        <polyline points="54.93 32.83 58.21 33.93 56.85 38.01 53.57 36.91" style="fill: #92d3f5;"/>
        <path d="m42.98,4.67v1.08l-2.15,8.6s-1.08,3.23-3.23,6.45-4.3,4.3-4.3,4.3l-3.23,2.15-2.15,2.15-5.38,11.83,1.08,2.15v1.08l1.08,1.08-3.23,4.3-3.51,8.27-6.17,5.71-7.57,1.08.04-58.07L21.47,1.45h17.21l4.3,3.23Z" style="fill: #d0cfce;"/>
      </g>
      <g id="skin-10" data-name="skin">
        <circle cx="55.85" cy="13.37" r="3.23" style="fill: #fcea2b;"/>
        <path d="m51.58,19.73l5.34,2.55-2.97,14.23-1.15,1.65-2.3,12.75,3.23,12.9-3.23,1.08-5.38-13.98v-10.75l-9.68-5.38-9.68,9.68-2.15-2.15,10.75-12.9,10.33,3.1s3.25-7.13,4.73-9.55c0,0-5.29-.81-12.72-3.13-1.66-.52-3.24-1.68-2.17-3.83" style="fill: #fcea2b;"/>
      </g>
      <g id="line-14" data-name="line">
        <circle cx="55.85" cy="13.37" r="3.23" style="fill: none; stroke: #000; stroke-miterlimit: 10; stroke-width: 2px;"/>
        <path d="m45.13,32.63l-8.69-2.61c-1.13-.34-2.68.13-3.44,1.03l-8,9.6c-.76.91-.89,2.14-.3,2.73s1.76.39,2.6-.45l6.64-6.64c.84-.84,2.37-1.05,3.4-.48l5.92,3.29c1.03.57,2.85,1.04,4.03,1.04h1.08c1.18,0,2.82-.7,3.63-1.56l.49-.52c.81-.86,1.67-2.44,1.9-3.5.23-1.07.43-1.94.43-1.94" style="fill: none; stroke: #000; stroke-linecap: round; stroke-linejoin: round; stroke-width: 2px;"/>
        <path d="m52.8,38.16l-1.91,10.64c-.21,1.16-.15,3.06.14,4.2l2.18,8.73c.29,1.15-.2,2.33-1.09,2.62s-1.96-.37-2.38-1.47l-3.83-9.97c-.42-1.1-.77-2.98-.77-4.16v-7.53" style="fill: none; stroke: #000; stroke-linecap: round; stroke-linejoin: round; stroke-width: 2px;"/>
        <path d="m54.81,32.63l1.99-6.63c.68-2.27-.22-4.6-1.99-5.2s-5.15-1.32-7.49-1.61h-.07c-2.35-.3-5.96-1-8.03-1.57-2.07-.56-3.76-1.02-3.76-1.02" style="fill: none; stroke: #000; stroke-linecap: round; stroke-linejoin: round; stroke-width: 2px;"/>
        <polyline points="17.17 57.36 24.7 45.53 22.55 41.23 29 27.25 34.38 24.03 36.53 20.8" style="fill: none; stroke: #000; stroke-linecap: round; stroke-linejoin: round; stroke-width: 2px;"/>
        <line x1="46.2" y1="29.4" x2="54.81" y2="32.63" style="fill: none; stroke: #000; stroke-linecap: round; stroke-linejoin: round; stroke-width: 2px;"/>
        <polyline points="56.17 33.25 58.21 33.93 56.85 38.01 54.81 37.33" style="fill: none; stroke: #000; stroke-linecap: round; stroke-linejoin: round; stroke-width: 2px;"/>
        <line x1="39.75" y1="14.35" x2="41.9" y2="5.75" style="fill: none; stroke: #000; stroke-linecap: round; stroke-linejoin: round; stroke-width: 2px;"/>
        <line x1="49.43" y1="24.03" x2="48.35" y2="26.18" style="fill: none; stroke: #000; stroke-linecap: round; stroke-linejoin: round; stroke-width: 2px;"/>
      </g>
    </g>
  </g>
  <g id="Layer_15" data-name="Layer 15">
    <g>
      <g id="color-13" data-name="color">
        <path d="m24.51,9.93c-.43-.76,1.74-4.56,4.99-4.77,3.25-.33,5.64,1.63,4.77,3.9-.87,2.28-2.28,2.39-3.04,2.49l3.47,1.84c-.87,2.28-8.46,2.93-7.05,6.07l-4.34.43c.11-1.63,0-4.01-1.63-5.31-1.19-.98-3.04-1.19-4.56-1.74-2.17-.76-2.17-2.93-1.52-4.34.76-1.52,1.95-3.04,3.69-3.04,1.08,0,2.17,0,3.25,1.08l1.95,3.36Z" style="fill: #d0cfce; stroke: #d0cfce; stroke-linecap: round; stroke-linejoin: round; stroke-width: 1.8px;"/>
        <polygon points="61.6 61.88 54.44 53.32 50.76 43.45 42.08 36.94 36.66 36.94 32.32 23.92 36.66 36.94 32.32 23.92 27.98 26.09 19.52 24.03 13.88 36.94 11.71 49.95 3.03 61.88 61.6 61.88" style="fill: #9b9b9a;"/>
        <path d="m29.82,24.25c1.52.43.87,2.28,1.63,4.77.43,1.52.33,1.95.33,2.17-.54,1.41-1.3,1.3-1.84,2.6-.43,1.19.76,1.74.43,3.25s-1.84,2.93-2.93,2.6c-.87-.22-1.19-1.41-1.41-1.95-.54-1.95.22-3.8.43-4.45.87-1.95,1.84-2.39,1.63-3.58-.11-1.08-1.08-1.74-1.41-1.95-.87-.65-2.28-1.08-3.36-.65-2.06.87-2.6,4.99-2.17,8.03.43,2.39,3.04,7.59,2.39,9.44-.22.76-2.17-3.36-3.47-1.63-1.19,1.52.43,5.75-1.95,7.16-1.41.76-1.84-4.23-1.95-4.23-.33,0-1.08,1.63-.33-2.28.43-2.6,1.84-1.52,2.28-4.34.22-1.63.11-4.34-.11-6.51-.33-3.25-1.52-2.93-1.19-5.53.11-.87.87-1.63,2.17-2.28.54-.22.22-2.06,2.6-1.95,3.9.22,4.45,1.52,5.64,1.41,1.52-.11,1.84-.33,2.6-.11Z" style="fill: #ea5a47;"/>
      </g>
      <g id="line-15" data-name="line">
        <polyline points="61.6 60.8 54.44 53.32 50.76 43.45" style="fill: none; stroke: #000; stroke-linecap: round; stroke-linejoin: round; stroke-width: 2px;"/>
        <polyline points="19.3 23.92 13.88 36.94 11.71 49.95 3.03 60.8" style="fill: none; stroke: #000; stroke-linecap: round; stroke-linejoin: round; stroke-width: 2px;"/>
        <polyline points="36.66 36.94 32.32 23.92 30.58 24.79" style="fill: none; stroke: #000; stroke-linecap: round; stroke-linejoin: round; stroke-width: 2px;"/>
        <polyline points="36.66 36.94 42.08 36.94 50.76 43.45 49.67 49.95 50.76 55.38 48.59 57.55 45.33 60.8" style="fill: none; stroke: #000; stroke-linecap: round; stroke-linejoin: round; stroke-width: 2px;"/>
        <path d="m29.82,24.25c1.52.43.87,2.28,1.63,4.77.43,1.52.33,1.95.33,2.17-.54,1.41-1.3,1.3-1.84,2.6-.43,1.19.76,1.74.43,3.25s-1.84,2.93-2.93,2.6c-.87-.22-1.19-1.41-1.41-1.95-.54-1.95.22-3.8.43-4.45.87-1.95,1.84-2.39,1.63-3.58-.11-1.08-1.08-1.74-1.41-1.95-.87-.65-2.28-1.08-3.36-.65-2.06.87-2.6,4.99-2.17,8.03.43,2.39,3.04,7.59,2.39,9.44-.22.76-2.17-3.36-3.47-1.63-1.19,1.52.43,5.75-1.95,7.16-1.41.76-1.84-4.23-1.95-4.23-.33,0-1.08,1.63-.33-2.28.43-2.6,1.84-1.52,2.28-4.34.22-1.63.11-4.34-.11-6.51-.33-3.25-1.52-2.93-1.19-5.53.11-.87.87-1.63,2.17-2.28.54-.22.22-2.06,2.6-1.95,3.9.22,4.45,1.52,5.64,1.41,1.52-.11,1.84-.33,2.6-.11Z" style="fill: none; stroke: #000; stroke-linecap: round; stroke-linejoin: round; stroke-width: 1.8px;"/>
        <path d="m19.52,17.74c-.43-1.74-3.58-2.6-7.05-1.84" style="fill: none; stroke: #000; stroke-linecap: round; stroke-linejoin: round; stroke-width: 2px;"/>
        <path d="m31.23,20.56c2.93-2.06,7.27-.98,9.65,2.49" style="fill: none; stroke: #000; stroke-linecap: round; stroke-linejoin: round; stroke-width: 2px;"/>
        <path d="m18,21.65c-1.63-1.74-9.22-4.45-10.63,4.56" style="fill: none; stroke: #000; stroke-linecap: round; stroke-linejoin: round; stroke-width: 2px;"/>
        <path d="m22.56,6.57c-1.08-1.08-2.17-1.08-3.25-1.08-1.74,0-2.93,1.52-3.69,2.93-.65,1.41-.65,3.58,1.52,4.34,1.41.54,3.36.76,4.56,1.74,1.63,1.3,1.63,3.69,1.63,5.31" style="fill: none; stroke: #000; stroke-linecap: round; stroke-linejoin: round; stroke-width: 2px;"/>
        <path d="m31.12,11.45c.76-.11,2.17-.22,3.04-2.49s-1.52-4.23-4.77-3.9-5.42,4.12-4.99,4.77" style="fill: none; stroke: #000; stroke-linecap: round; stroke-linejoin: round; stroke-width: 2px;"/>
        <path d="m27.54,19.48c-1.41-3.15,6.18-3.8,7.05-6.07" style="fill: none; stroke: #000; stroke-linecap: round; stroke-linejoin: round; stroke-width: 2px;"/>
      </g>
    </g>
  </g>
  <g id="Layer_16" data-name="Layer 16">
    <g>
      <g id="color-14" data-name="color">
        <circle cx="32.05" cy="33.32" r="27.49" style="fill: #fcea2b; stroke: #fcea2b; stroke-linecap: round; stroke-linejoin: round; stroke-width: 2px;"/>
        <path d="m25.18,58.85c19.64,0,16.36-51.05,16.36-51.05,0,0,24.5,6.87,16.33,34.36-8.17,27.49-48,16.69-32.69,16.69Z" style="fill: #f1b31c; isolation: isolate; opacity: .4;"/>
        <circle cx="22.72" cy="24.98" r="4.91" style="fill: #fff;"/>
        <circle cx="41.37" cy="24.98" r="4.91" style="fill: #fff;"/>
      </g>
      <g id="line-16" data-name="line">
        <rect x="30.08" y="34.31" width="3.93" height="1.96" style="stroke: #000; stroke-linecap: round; stroke-linejoin: round; stroke-width: .25px;"/>
        <path d="m32.05,60.81c-15.18,0-27.49-12.31-27.49-27.49S16.87,5.84,32.05,5.84" style="fill: none; stroke: #000; stroke-linecap: round; stroke-linejoin: round; stroke-width: 2px;"/>
        <path d="m32.05,5.84c15.18,0,27.49,12.31,27.49,27.49s-12.31,27.49-27.49,27.49" style="fill: none; stroke: #000; stroke-linecap: round; stroke-linejoin: round; stroke-width: 2px;"/>
        <path d="m32.05,36.76c1.08,0,2.45-.88,2.45-1.96h-4.42c0,1.08.88,1.96,1.96,1.96Z" style="fill: none; stroke: #000; stroke-linecap: round; stroke-linejoin: round; stroke-width: 2px;"/>
        <path d="m23.13,43.06s3.64,3.33,9.47,3.7c6.81.31,10.23-3.63,10.23-3.63" style="fill: none; stroke: #000; stroke-linecap: round; stroke-linejoin: round; stroke-width: 2px;"/>
        <circle cx="22.72" cy="24.98" r="4.91" style="fill: none; stroke: #000; stroke-linecap: round; stroke-linejoin: round; stroke-width: 2px;"/>
        <circle cx="41.37" cy="24.98" r="4.91" style="fill: none; stroke: #000; stroke-linecap: round; stroke-linejoin: round; stroke-width: 2px;"/>
        <circle cx="41.37" cy="24.98" r="4.91" style="fill: none; stroke: #000; stroke-linecap: round; stroke-linejoin: round;"/>
        <circle cx="39.36" cy="25.22" r="1.72" style="stroke: #000; stroke-linecap: round; stroke-linejoin: round; stroke-width: 2px;"/>
        <circle cx="22.72" cy="24.98" r="4.91" style="fill: none; stroke: #000; stroke-linecap: round; stroke-linejoin: round;"/>
        <circle cx="20.51" cy="25.22" r="1.72" style="stroke: #000; stroke-linecap: round; stroke-linejoin: round; stroke-width: 2px;"/>
      </g>
    </g>
  </g>
  <g id="Layer_17" data-name="Layer 17">
    <g>
      <g id="color-15" data-name="color">
        <polygon points="32.11 8.78 27.85 3.46 25.25 9.76 19.67 5.86 18.96 12.64 12.5 10.48 13.73 17.17 6.92 16.91 9.98 23 3.38 24.67 8.03 29.64 2.17 33.1 8.03 36.57 3.38 41.54 9.98 43.21 6.92 49.29 13.73 49.03 12.5 55.73 18.96 53.57 19.67 60.34 25.25 56.45 27.85 62.74 32.11 57.43 36.37 62.74 38.97 56.45 44.55 60.34 45.26 53.57 51.72 55.73 50.5 49.03 57.3 49.29 54.25 43.21 60.84 41.54 56.19 36.57 62.05 33.1 56.19 29.64 60.84 24.67 54.25 23 57.3 16.91 50.5 17.17 51.72 10.48 45.26 12.63 44.55 5.86 38.97 9.76 36.37 3.46 32.11 8.78" style="fill: #fcea2b;"/>
      </g>
      <g id="line-17" data-name="line">
        <polygon points="32.11 8.78 27.85 3.46 25.25 9.76 19.67 5.86 18.96 12.64 12.5 10.48 13.73 17.17 6.92 16.91 9.98 23 3.38 24.67 8.03 29.64 2.17 33.1 8.03 36.57 3.38 41.54 9.98 43.21 6.92 49.29 13.73 49.03 12.5 55.73 18.96 53.57 19.67 60.34 25.25 56.45 27.85 62.74 32.11 57.43 36.37 62.74 38.97 56.45 44.55 60.34 45.26 53.57 51.72 55.73 50.5 49.03 57.3 49.29 54.25 43.21 60.84 41.54 56.19 36.57 62.05 33.1 56.19 29.64 60.84 24.67 54.25 23 57.3 16.91 50.5 17.17 51.72 10.48 45.26 12.63 44.55 5.86 38.97 9.76 36.37 3.46 32.11 8.78" style="fill: none; stroke: #000; stroke-linecap: round; stroke-linejoin: round; stroke-width: 2px;"/>
        <circle cx="24.48" cy="31.03" r="2.81"/>
        <circle cx="39.74" cy="31.03" r="2.81"/>
        <path d="m39.29,42.82c-2,1.48-4.5,2.39-7.18,2.39s-5.17-.87-7.18-2.39" style="fill: none; stroke: #000; stroke-linecap: round; stroke-linejoin: round; stroke-width: 2px;"/>
        <path d="m28.16,20.94s-4.47-2.43-8.93,1.55" style="fill: none; stroke: #000; stroke-linecap: round; stroke-linejoin: round; stroke-width: 2px;"/>
        <path d="m36.06,20.94s4.47-2.43,8.93,1.55" style="fill: none; stroke: #000; stroke-linecap: round; stroke-linejoin: round; stroke-width: 2px;"/>
      </g>
    </g>
  </g>
  <g id="Layer_18" data-name="Layer 18">
    <g>
      <g id="color-16" data-name="color">
        <path d="m48.62,49.67c-12.68,14.99-31.96,14.19-39.96,7.41l-.47-2.15c14.4-4.28,17-2.59,28.31-13,6.54-7.76,12-19.16,11.68-27.46,6.84-.21,0,0,5.3-.21,4.4,11.05,2.67,25.93-4.85,35.41h0Z" style="fill: #fcea2b; stroke: #fcea2b; stroke-linecap: round; stroke-linejoin: round; stroke-width: .75px;"/>
        <path d="m51.74,14.83c5.12-.48,5.92,25.65-1.59,35.13-13.36,12.46-27.45,13.7-41.7,6.07,29.38,6.21,44.67-17.41,43.29-41.2h0Z" style="fill: #f1b31c; stroke: #f1b31c; stroke-linecap: round; stroke-linejoin: round; stroke-width: .75px;"/>
      </g>
      <g id="line-18" data-name="line">
        <line x1="50.47" y1="10.11" x2="49.82" y2="5.26" style="fill: none; stroke: #000; stroke-linecap: round; stroke-linejoin: round; stroke-width: 2px;"/>
        <path d="m20.7,56.59c18.9-3.29,27.67-12.61,30.19-30.66" style="fill: none; stroke: #000; stroke-linecap: round; stroke-linejoin: round; stroke-width: 2px;"/>
        <path d="m45.32,53.73c-9.17,8.16-26.09,10.7-36.7,3.12l-.47-2.15c20.85-2.5,37.1-15.8,40.02-40.24,1.25,0,5.26-.45,5.26-.45,6.34,17.09,1.99,30.73-8.11,39.7h0Z" style="fill: none; stroke: #000; stroke-linecap: round; stroke-linejoin: round; stroke-width: 2px;"/>
      </g>
    </g>
  </g>
  <g id="Layer_19" data-name="Layer 19">
    <g>
      <g id="color-17" data-name="color">
        <rect x="9.28" y="18.74" width="35.63" height="43.21" style="fill: #fcea2b;"/>
        <polygon points="34.85 18.74 25.91 61.96 44.91 61.96 44.91 18.74 34.85 18.74" style="fill: #f1b31c;"/>
        <path d="m39.21,9.44c-1.55,0-2.97.56-4.11,1.49-1.11-2.3-3.37-3.88-5.97-3.88-.95,0-1.85.21-2.67.59-1.33-1.81-3.4-2.97-5.72-2.97-3.5,0-6.42,2.62-7.12,6.12-.41-.1-.84-.17-1.28-.17-3.09,0-5.6,2.66-5.6,5.95v9.52c0,1.31,1,2.38,2.23,2.38h1.12c1.23,0,2.24-1.07,2.24-2.38v-1.9c.68.44,1.47.71,2.32.71h2.2c1.43,0,2.69-.73,3.51-1.84,1.22,1.83,3.22,3.04,5.48,3.04,3.7,0,6.72-3.21,6.72-7.13h12.97c.25-.73.39-1.53.39-2.37,0-3.94-3-7.14-6.71-7.15Z" style="fill: #fff;"/>
        <path d="m10.24,20.61c0-3.19,2.51-5.78,5.6-5.78.44,0,.87.07,1.28.17.7-3.4,3.62-5.95,7.12-5.94,2.33,0,4.39,1.14,5.72,2.89.82-.37,1.72-.57,2.67-.57,2.6,0,4.86,1.54,5.97,3.77,1.14-.91,2.56-1.45,4.11-1.45.63,0,1.24.1,1.81.26-.91-2.71-3.4-4.66-6.33-4.66-1.55,0-2.97.54-4.11,1.45-1.11-2.24-3.37-3.77-5.97-3.77-.95,0-1.85.2-2.67.57-1.33-1.76-3.4-2.89-5.72-2.89-3.5,0-6.42,2.54-7.12,5.94-.41-.1-.84-.17-1.28-.17-3.09,0-5.6,2.58-5.6,5.78v9.25c0,1.27,1,2.31,2.23,2.31h1.12c.43,0,.83-.13,1.17-.35v-6.82Z" style="fill: #fff;"/>
      </g>
      <g id="line-19" data-name="line">
        <path d="m45.51,51.13h7.13c2.61,0,4.75-2.14,4.75-4.75v-16.63c0-2.61-2.14-4.75-4.75-4.75h-7.13" style="fill: none; stroke: #000; stroke-linecap: round; stroke-linejoin: round; stroke-width: 2px;"/>
        <polyline points="32.56 18.74 44.91 18.74 44.91 62.41 10.47 62.41 10.47 38.22" style="fill: none; stroke: #000; stroke-linecap: round; stroke-linejoin: round; stroke-width: 2.02px;"/>
        <path d="m10.77,28.34c.89-.31,1.55-1.21,1.55-2.26v-1.9c.68.44,1.47.71,2.32.71h2.2c1.43,0,2.69-.73,3.51-1.84,1.22,1.83,3.22,3.04,5.48,3.04,3.7,0,6.72-3.21,6.72-7.13h12.97c.25-.73.39-1.53.39-2.37,0-3.94-3-7.14-6.71-7.15-1.55,0-2.97.56-4.11,1.49-1.11-2.3-3.37-3.88-5.97-3.88-.95,0-1.85.21-2.67.59-1.33-1.81-3.4-2.97-5.72-2.97-3.5,0-6.42,2.62-7.12,6.12-.41-.1-.84-.17-1.28-.17-3.09,0-5.6,2.66-5.6,5.95v9.52c0,1.31,1,2.38,2.23,2.38h1.12c.24,0,.48-.04.7-.12" style="fill: none; stroke: #000; stroke-linecap: round; stroke-linejoin: round; stroke-width: 2px;"/>
      </g>
    </g>
  </g>
  <g id="Layer_20" data-name="Layer 20">
    <g>
      <g id="color-18" data-name="color">
        <path d="m2.28,40.19c4.76,6.45,12.41,10.63,21.04,10.63,14.43,0,26.13-11.7,26.13-26.13,0-8.91-4.46-16.78-11.26-21.49,13.63,2.97,23.81,15.1,23.81,29.62,0,16.74-13.57,30.31-30.31,30.31-14.2,0-26.12-9.75-29.41-22.94Z" style="fill: #fcea2b;"/>
        <path d="m42.5,5.49c8.62,4.44,16.93,12.41,16.93,25.79,0,16.15-13.09,29.24-29.24,29.24-9.66,0-20.65-5.05-25.39-16.25,0,0,4.58,19.5,26.88,19.51,20.2,0,29.31-21.56,29.31-21.56C67.79,8.8,42.5,5.49,42.5,5.49Z" style="fill: #f1b31c;"/>
      </g>
      <g id="line-20" data-name="line">
        <path d="m2.28,40.19c4.76,6.45,12.41,10.63,21.04,10.63,14.43,0,26.13-11.7,26.13-26.13,0-8.91-4.46-16.78-11.26-21.49,13.63,2.97,23.81,15.1,23.81,29.62,0,16.74-13.57,30.31-30.31,30.31-14.2,0-26.12-9.75-29.41-22.94Z" style="fill: none; stroke: #000; stroke-linecap: round; stroke-linejoin: round; stroke-width: 2px;"/>
      </g>
    </g>
  </g>
  <g id="Layer_21" data-name="Layer 21">
    <g>
      <g id="color-19" data-name="color">
        <polygon points="23.42 42.51 23.45 48.98 23.48 55.44 17.55 51.63 11.62 47.82 17.52 45.16 23.42 42.51" style="fill: #d22f27;"/>
        <circle cx="34.45" cy="26.8" r="23.03" style="fill: #ea5a47;"/>
        <path d="m50.3,10.33c-1.34-1.34-2.81-2.48-4.37-3.42,5.37,8.86,4.23,20.55-3.42,28.2-7.65,7.65-19.34,8.79-28.2,3.42.94,1.55,2.08,3.02,3.42,4.37,8.99,8.99,23.57,8.99,32.57,0,8.99-8.99,8.99-23.57,0-32.57Z" style="fill: #d22f27;"/>
      </g>
      <g id="line-21" data-name="line">
        <polyline points="23.44 47.03 23.45 48.98 23.48 55.44 17.55 51.63 11.63 47.82 17.52 45.16 19.47 44.28" style="fill: none; stroke: #000; stroke-linecap: round; stroke-linejoin: round; stroke-width: 2.12px;"/>
        <circle cx="34.45" cy="26.8" r="23.03" style="fill: none; stroke: #000; stroke-miterlimit: 10; stroke-width: 2px;"/>
        <path d="m7.14,64.93c.51.04,1.03,0,1.55-.13,2.71-.67,4.42-3.46,3.82-6.25" style="fill: none; stroke: #000; stroke-linecap: round; stroke-linejoin: round; stroke-width: 2px;"/>
        <path d="m12.57,58.74c-.16-.48-.25-.99-.26-1.53-.02-2.79,2.26-5.13,5.11-5.24" style="fill: none; stroke: #000; stroke-linecap: round; stroke-linejoin: round; stroke-width: 2px;"/>
      </g>
    </g>
  </g>
  <g id="Layer_22" data-name="Layer 22">
    <g>
      <g id="color-20" data-name="color">
        <path d="m48.9,58.28s2.05-14.36-10.25-14.36c-3.27,2.18-6.07,3.69-9.22,3.68h.13c-3.15,0-5.95-1.5-9.22-3.68-12.29,0-10.25,14.36-10.25,14.36" style="fill: #b1cc33;"/>
        <rect x="15.29" y="43.96" width="4.39" height="14.37" style="fill: #61b2e4;"/>
        <rect x="38.31" y="43.96" width="4.39" height="14.37" style="fill: #61b2e4;"/>
        <rect x="15.29" y="56.6" width="28.16" height="1.78" style="fill: #61b2e4;"/>
        <polyline points="20.28 44.02 26.23 54.46 29.5 49.03" style="fill: #5c9e31;"/>
        <polyline points="38.72 44.02 32.78 54.46 29.5 49.03" style="fill: #5c9e31;"/>
        <polyline points="20.45 14.64 20.45 6.24 29.45 7.69 38.45 6.24 38.45 14.64" style="fill: #f4aa41;"/>
        <rect x="20.45" y="11.14" width="17.87" height="2.72" style="fill: #e27022;"/>
        <rect x="51.69" y="39.62" width="5.61" height="4.35" style="fill: #9b9b9a;"/>
        <polygon points="52.45 44.01 52.45 53.56 52.45 57.24 52.45 58.28 56.55 58.28 56.55 57.24 56.55 53.56 56.55 44.01 52.45 44.01" style="fill: #a57939;"/>
      </g>
      <g id="hair-3" data-name="hair">
        <path d="m2.67,47.36c6.51-.4,4.67-5.82,4.67-5.82,0,0-5.68-.63-4.67,5.82Z" style="fill: #a57939;"/>
        <path d="m50.31,36.93c2.16-2.51-.99-5.66-2.24-4.86,2.16-4.21.22-7.84-1.88-11.11-2.55-3.97-6.15-6.67-6.15-6.67h-20.29s-12.29,8.97-7.52,18.29c-1.25-.79-2.41-.32-3.21.94-.79,1.25-.8,2.62.45,3.41-1.45,0-2.63,1.18-2.63,2.63s1.18,2.63,2.63,2.63,2.63-1.18,2.63-2.63c.7,1.31,2.04,1.33,3.37.67,2-.99,1.11-3.63,1.11-3.63,3.69,6.26,9.36,3.92,9.39,3.91-4.69-1.87-8.08-7.36-8.08-13.84,0-3.02.74-5.82,1.99-8.14l-.03.09.65,2.11h17.76l.65-2.11-.03-.09c1.26,2.32,1.99,5.12,1.99,8.14,0,6.48-3.4,11.97-8.08,13.84.03.01,5.7,2.35,9.39-3.91,0,0-.89,2.65,1.11,3.63,1.33.66,1.95,1.66,2.65.35,0,1.45,1.18,2.63,2.63,2.63,3.62,0,3.35-2.2,3.35-3.66.5-1.18.46-2.62-1.61-2.63Z" style="fill: #a57939;"/>
      </g>
      <g id="skin-11" data-name="skin">
        <path d="m29.5,21.08h9.06s-.02-3.28.25-2.85c1.49,2.44,2.37,5.49,2.37,8.79,0,8.02-5.2,14.52-11.62,14.52s-11.62-6.5-11.62-14.52c0-3.16.81-6.08,2.18-8.46.19-.33.37,2.52.37,2.52h9Z" style="fill: #fcea2b;"/>
      </g>
      <g id="line-22" data-name="line">
        <path d="m35.65,25.63c0,1.13-.92,2.05-2.05,2.05s-2.05-.92-2.05-2.05.92-2.05,2.05-2.05,2.05.92,2.05,2.05"/>
        <path d="m27.45,25.63c0,1.13-.92,2.05-2.05,2.05s-2.05-.92-2.05-2.05.92-2.05,2.05-2.05,2.05.92,2.05,2.05"/>
        <path d="m29.5,35.87c-1.18,0-2.36-.29-3.53-.88-.51-.25-.71-.87-.46-1.37.25-.51.87-.71,1.37-.46,1.76.88,3.47.88,5.23,0,.51-.25,1.12-.05,1.37.46.25.51.05,1.12-.46,1.37-1.17.59-2.35.88-3.53.88Z"/>
        <polyline points="20.28 44.02 26.23 54.46 29.5 49.03" style="fill: none; stroke: #000; stroke-linecap: round; stroke-linejoin: round; stroke-width: 2px;"/>
        <polyline points="38.72 44.02 32.78 54.46 29.5 49.03" style="fill: none; stroke: #000; stroke-linecap: round; stroke-linejoin: round; stroke-width: 2px;"/>
        <path d="m48.9,57.24s2.05-13.32-10.25-13.32c-3.27,2.18-6.07,3.69-9.22,3.68h.13c-3.15,0-5.95-1.5-9.22-3.68-12.29,0-10.25,13.32-10.25,13.32" style="fill: none; stroke: #000; stroke-linecap: round; stroke-linejoin: round; stroke-width: 2px;"/>
        <line x1="15.29" y1="44.89" x2="15.29" y2="57.4" style="fill: none; stroke: #000; stroke-linecap: round; stroke-linejoin: round; stroke-width: 2px;"/>
        <line x1="43.46" y1="44.89" x2="43.46" y2="57.4" style="fill: none; stroke: #000; stroke-linecap: round; stroke-linejoin: round; stroke-width: 2px;"/>
        <polyline points="20.56 44.18 20.56 57.4 38.43 57.38 38.43 44.16" style="fill: none; stroke: #000; stroke-linecap: round; stroke-linejoin: round; stroke-width: 2px;"/>
        <path d="m9.48,37.28c-1.25-.79-1.25-2.16-.45-3.41.79-1.25,1.95-1.73,3.21-.94" style="fill: none; stroke: #000; stroke-linecap: round; stroke-linejoin: round; stroke-width: 2px;"/>
        <path d="m12.11,39.91c0,1.45-1.18,2.63-2.63,2.63s-2.63-1.18-2.63-2.63,1.18-2.63,2.63-2.63" style="fill: none; stroke: #000; stroke-linecap: round; stroke-linejoin: round; stroke-width: 2px;"/>
        <path d="m2.67,47.71c6.51-.4,4.67-5.82,4.67-5.82,0,0-5.68-.63-4.67,5.82Z" style="fill: none; stroke: #000; stroke-linecap: round; stroke-linejoin: round; stroke-width: 2px;"/>
        <path d="m16.58,36.95s.89,2.65-1.11,3.63c-1.33.66-2.67.63-3.37-.67" style="fill: none; stroke: #000; stroke-linecap: round; stroke-linejoin: round; stroke-width: 2px;"/>
        <polyline points="20.45 14.64 20.45 6.24 29.45 7.69 38.45 6.24 38.45 14.64" style="fill: none; stroke: #000; stroke-linecap: round; stroke-linejoin: round; stroke-width: 2px;"/>
        <line x1="20.45" y1="11.05" x2="38.45" y2="11.05" style="fill: none; stroke: #000; stroke-linecap: round; stroke-linejoin: round; stroke-width: 2px;"/>
        <path d="m19.75,14.64s-12.29,8.97-7.52,18.29" style="fill: none; stroke: #000; stroke-linecap: round; stroke-linejoin: round; stroke-width: 2px;"/>
        <path d="m46.65,39.91c0,.83.38,1.56.98,2.05" style="fill: none; stroke: #000; stroke-linecap: round; stroke-linejoin: round; stroke-width: 2px;"/>
        <path d="m42.18,36.95s-.89,2.65,1.11,3.63c1.33.66,2.67.63,3.37-.67" style="fill: none; stroke: #000; stroke-linecap: round; stroke-linejoin: round; stroke-width: 2px;"/>
        <path d="m39.01,14.64s3.03,2.21,5.5,5.58" style="fill: none; stroke: #000; stroke-linecap: round; stroke-linejoin: round; stroke-width: 2px;"/>
        <path d="m47.15,23.58s-2.43,15.79,7.26,16.04v-16.04" style="fill: none; stroke: #000; stroke-linecap: round; stroke-linejoin: round; stroke-width: 2px;"/>
        <path d="m61.67,23.58s2.43,15.79-7.26,16.04v-16.04" style="fill: none; stroke: #000; stroke-linecap: round; stroke-linejoin: round; stroke-width: 2px;"/>
        <rect x="51.69" y="39.62" width="5.61" height="4.35" style="fill: none; stroke: #000; stroke-linecap: round; stroke-linejoin: round; stroke-width: 2px;"/>
        <polyline points="56.55 57.24 56.55 44.01 52.45 44.01 52.45 57.24" style="fill: none; stroke: #000; stroke-linecap: round; stroke-linejoin: round; stroke-width: 2px;"/>
        <line x1="12.58" y1="14.64" x2="45.95" y2="14.64" style="fill: none; stroke: #000; stroke-linecap: round; stroke-linejoin: round; stroke-width: 2px;"/>
        <path d="m19.88,18.88c-1.26,2.32-1.99,5.12-1.99,8.14,0,8.02,5.2,14.52,11.62,14.52s11.62-6.5,11.62-14.52c0-2.84-.65-5.48-1.78-7.72l-.24-.91-.53,2.69h-18.07l-.65-2.11" style="fill: none; stroke: #000; stroke-linecap: round; stroke-linejoin: round; stroke-width: 2px;"/>
      </g>
    </g>
  </g>
  <g id="Layer_23" data-name="Layer 23">
    <g>
      <g id="color-21" data-name="color">
        <path d="m55.42,54.51c7.51,0-8.01-28.2-8.01-28.2h-30.4S1.49,54.51,9,54.51h46.42Z" style="fill: #fff;"/>
        <path d="m48.44,61.9c-5.87-8.22-13.35-2.91-15.49-1.5-2.14-1.4-9.62-6.72-15.49,1.5" style="fill: #fff;"/>
      </g>
      <g id="hair-4" data-name="hair">
        <circle cx="32.73" cy="11.03" r="5.45" style="fill: #a57939;"/>
        <path d="m48.97,26.39c0,3.48-.9,6.11-2.45,8.06-3.22-2.82-23.85-3.68-27.39.18-1.66-1.98-2.63-4.67-2.63-8.25,0-8.97,7.27-16.23,16.23-16.23s16.23,7.27,16.23,16.23Z" style="fill: #a57939;"/>
      </g>
      <g id="skin-12" data-name="skin">
        <path d="m32.95,60.4c2.14-1.4,9.61-6.71,15.49,1.5h5.17c-.25-.11,1.42-15.49-10.99-15.45-3.4,2.27-6.85,3.94-10.13,3.96-3.27-.02-6.19-1.58-9.59-3.85-12.88,0-10.73,15.34-10.73,15.34h5.29c5.87-8.21,13.34-2.9,15.49-1.5Z" style="fill: #fcea2b;"/>
        <path d="m21.32,32.56c1.26,6.72,6.08,11.73,11.85,11.73s10.38-4.79,11.76-11.29v.02c-3.76-1.87.12-6.49.12-6.49-2.41-.46-5.16-2.82-7.41-5.2l-.05-.31c-1.36.21-2.93.36-4.7.36-1.63,0-3.1-.12-4.38-.31l-.04.26c-2.24,2.38-5,4.73-7.41,5.2,0,0,3.88,4.62.13,6.49" style="fill: #fcea2b;"/>
      </g>
      <g id="line-23" data-name="line">
        <path d="m39.44,27.72c0,1.19-.96,2.15-2.15,2.15s-2.15-.96-2.15-2.15.96-2.15,2.15-2.15,2.15.96,2.15,2.15"/>
        <path d="m30.86,27.72c0,1.19-.96,2.15-2.15,2.15s-2.15-.96-2.15-2.15.96-2.15,2.15-2.15,2.15.96,2.15,2.15"/>
        <path d="m33.01,38.45c-1.24,0-2.47-.31-3.7-.92-.53-.27-.75-.91-.48-1.44.26-.53.91-.74,1.44-.48,1.84.92,3.63.92,5.48,0,.53-.27,1.17-.05,1.44.48.27.53.05,1.17-.48,1.44-1.23.61-2.46.92-3.7.92Z"/>
        <path d="m21.16,32.66c1.26,6.72,6.08,11.73,11.85,11.73s10.38-4.79,11.76-11.29" style="fill: none; stroke: #000; stroke-miterlimit: 10; stroke-width: 2px;"/>
        <path d="m12.56,60.82s-2.15-13.95,10.73-13.95c3.42,2.28,6.36,3.86,9.66,3.85h-.13c3.3,0,6.23-1.57,9.66-3.85,12.88,0,10.73,13.95,10.73,13.95" style="fill: none; stroke: #000; stroke-linecap: round; stroke-linejoin: round; stroke-width: 2px;"/>
        <path d="m48.44,60.82c-5.87-8.22-13.35-1.79-15.49-.39-2.14-1.4-9.62-7.83-15.49.39" style="fill: none; stroke: #000; stroke-linecap: round; stroke-linejoin: round; stroke-width: 2px;"/>
        <path d="m43.3,18.98s-3.89,2.07-10.56,2.07-10.57-2.07-10.57-2.07" style="fill: none; stroke: #000; stroke-linecap: round; stroke-linejoin: round; stroke-width: 2px;"/>
        <path d="m28.31,21.42c-2.24,2.38-5,4.73-7.41,5.2,0,0,3.88,4.62.13,6.49-3.75,1.87-2.74,5.27-1.1,5.62" style="fill: none; stroke: #000; stroke-linecap: round; stroke-linejoin: round; stroke-width: 2px;"/>
        <path d="m37.48,21.42c2.24,2.38,5,4.73,7.41,5.2,0,0-3.88,4.62-.13,6.49,3.75,1.87,2.74,5.27,1.1,5.62" style="fill: none; stroke: #000; stroke-linecap: round; stroke-linejoin: round; stroke-width: 2px;"/>
        <path d="m17.46,25.57s.59-14.38,15.41-14.38,15.31,14.96,15.31,14.96" style="fill: none; stroke: #000; stroke-linecap: round; stroke-linejoin: round; stroke-width: 2px;"/>
        <path d="m27.46,11.11c0-2.96,2.4-5.36,5.36-5.36s5.36,2.4,5.36,5.36" style="fill: none; stroke: #000; stroke-linecap: round; stroke-linejoin: round; stroke-width: 2px;"/>
        <path d="m9.45,53.77c-7.51,0,8.01-28.2,8.01-28.2,0,0-.51,3.47.43,5.27" style="fill: none; stroke: #000; stroke-linecap: round; stroke-linejoin: round; stroke-width: 2px;"/>
        <path d="m55.87,53.77c7.51,0-7.75-28.2-7.75-28.2,0,0,.51,3.47-.43,5.27" style="fill: none; stroke: #000; stroke-linecap: round; stroke-linejoin: round; stroke-width: 2px;"/>
      </g>
    </g>
  </g>
  <g id="Layer_24" data-name="Layer 24">
    <g>
      <g id="line-supplement-2" data-name="line-supplement">
        <g>
          <path d="m8.15,39.64h0c1.35,0,2.44,1.09,2.44,2.44v1.29c0,1.35-1.09,2.44-2.44,2.44h0c-1.35,0-2.44-1.09-2.44-2.44v-1.29c0-1.35,1.09-2.44,2.44-2.44Z" style="fill: none; stroke: #000; stroke-miterlimit: 10; stroke-width: 1.8px;"/>
          <path d="m14.81,35.27h0c1.35,0,2.44,1.09,2.44,2.44v1.29c0,1.35-1.09,2.44-2.44,2.44h0c-1.35,0-2.44-1.09-2.44-2.44v-1.29c0-1.35,1.09-2.44,2.44-2.44Z" style="fill: none; stroke: #000; stroke-miterlimit: 10; stroke-width: 1.8px;"/>
          <path d="m21.27,37.63h0c1.35,0,2.44,1.09,2.44,2.44v1.29c0,1.35-1.09,2.44-2.44,2.44h0c-1.35,0-2.44-1.09-2.44-2.44v-1.29c0-1.35,1.09-2.44,2.44-2.44Z" style="fill: none; stroke: #000; stroke-miterlimit: 10; stroke-width: 1.8px;"/>
          <path d="m27.91,47.12h0c1.35,0,2.44,1.09,2.44,2.44v1.29c0,1.35-1.09,2.44-2.44,2.44h0c-1.35,0-2.44-1.09-2.44-2.44v-1.29c0-1.35,1.09-2.44,2.44-2.44Z" style="fill: none; stroke: #000; stroke-miterlimit: 10; stroke-width: 1.8px;"/>
        </g>
      </g>
      <g id="color-22" data-name="color">
        <polygon points="40.56 20.33 52.66 2.3 59.19 5.75 46.88 24.51 43.4 22.21 40.56 20.33" style="fill: #ea5a47;"/>
        <path d="m34.17,33.2c-1.52-.35-5.15,2.73-4.04,5.31.92,2.15,1.09,2.02.52,3.86l4.1-1.74s2.27-2.37,1.85-4.32c-.19-.9-1.3-2.84-2.44-3.11Z" style="fill: #ea5a47;"/>
        <g>
          <path d="m8.15,39.64h0c1.35,0,2.44,1.09,2.44,2.44v1.29c0,1.35-1.09,2.44-2.44,2.44h0c-1.35,0-2.44-1.09-2.44-2.44v-1.29c0-1.35,1.09-2.44,2.44-2.44Z" style="fill: #ea5a47;"/>
          <path d="m14.81,35.27h0c1.35,0,2.44,1.09,2.44,2.44v1.29c0,1.35-1.09,2.44-2.44,2.44h0c-1.35,0-2.44-1.09-2.44-2.44v-1.29c0-1.35,1.09-2.44,2.44-2.44Z" style="fill: #ea5a47;"/>
          <path d="m21.27,37.63h0c1.35,0,2.44,1.09,2.44,2.44v1.29c0,1.35-1.09,2.44-2.44,2.44h0c-1.35,0-2.44-1.09-2.44-2.44v-1.29c0-1.35,1.09-2.44,2.44-2.44Z" style="fill: #ea5a47;"/>
          <path d="m27.91,47.12h0c1.35,0,2.44,1.09,2.44,2.44v1.29c0,1.35-1.09,2.44-2.44,2.44h0c-1.35,0-2.44-1.09-2.44-2.44v-1.29c0-1.35,1.09-2.44,2.44-2.44Z" style="fill: #ea5a47;"/>
        </g>
      </g>
      <g id="skin-13" data-name="skin">
        <path d="m31.04,49.89c-.16-1.03-.82-1.92-1.77-2.37.13.09.25.19.36.3.45.46.71,1.08.71,1.73v1.29c0,1.35-1.09,2.44-2.44,2.44-1.35,0-2.44-1.09-2.44-2.44v-1.29c0-.87.47-1.68,1.23-2.12-1.08.39-1.88,1.32-2.09,2.45l-.1-8.93c-.12-1.29-.89-2.42-2.04-3.02.2.11.38.24.54.4.46.46.71,1.08.71,1.73v1.29c0,1.35-1.09,2.44-2.44,2.44-1.35,0-2.44-1.09-2.44-2.44h0v-1.29c0-.79.39-1.53,1.03-1.99-1.02.65-1.72,1.7-1.92,2.89h-.04s-.04-3.11-.04-3.11c-.21-1.55-1.55-2.69-3.12-2.64-1.61-.08-3.03,1.05-3.31,2.64l.03,4.91h-.03c-.09-1.78-1.54-3.18-3.32-3.22-1.72-.06-3.16,1.29-3.22,3.02,0,.07,0,.13,0,.2l.08,21.69h26.25l-.19-14.58Zm-20.45-6.51c0,1.35-1.09,2.44-2.44,2.44-1.35,0-2.44-1.09-2.44-2.44v-1.3c0-1.35,1.09-2.44,2.44-2.44,1.35,0,2.44,1.09,2.44,2.44h0v1.31Zm6.66-4.37c0,1.35-1.09,2.44-2.44,2.44-1.35,0-2.44-1.09-2.44-2.44h0v-1.29c0-1.35,1.09-2.44,2.44-2.44,1.35,0,2.44,1.09,2.44,2.44h0v1.29Z" style="fill: #fcea2b;"/>
        <path d="m31.04,49.89c-.16-1.03-.82-1.92-1.77-2.37.13.09.25.19.36.3.45.46.71,1.08.71,1.73v1.29c0,1.35-1.09,2.44-2.44,2.44-1.35,0-2.44-1.09-2.44-2.44v-1.29c0-.87.47-1.68,1.23-2.12-1.08.39-1.88,1.32-2.09,2.45l-.1-8.93c-.12-1.29-.89-2.42-2.04-3.02.2.11.38.24.54.4.46.46.71,1.08.71,1.73v1.29c0,1.35-1.09,2.44-2.44,2.44-1.35,0-2.44-1.09-2.44-2.44h0v-1.29c0-.79.39-1.53,1.03-1.99-1.02.65-1.72,1.7-1.92,2.89h-.04s-.04-3.11-.04-3.11c-.21-1.55-1.55-2.69-3.12-2.64-1.61-.08-3.03,1.05-3.31,2.64l.03,4.91h-.03c-.09-1.78-1.54-3.18-3.32-3.22-1.72-.06-3.16,1.29-3.22,3.02,0,.07,0,.13,0,.2l.08,21.69h26.25l-.19-14.58Zm-20.45-6.51c0,1.35-1.09,2.44-2.44,2.44-1.35,0-2.44-1.09-2.44-2.44v-1.3c0-1.35,1.09-2.44,2.44-2.44,1.35,0,2.44,1.09,2.44,2.44h0v1.31Zm6.66-4.37c0,1.35-1.09,2.44-2.44,2.44-1.35,0-2.44-1.09-2.44-2.44h0v-1.29c0-1.35,1.09-2.44,2.44-2.44,1.35,0,2.44,1.09,2.44,2.44h0v1.29Z" style="fill: #fcea2b;"/>
      </g>
      <g id="line-24" data-name="line">
        <g>
          <path d="m11.8,59.31l-.27-16.86c-.09-1.78-1.54-3.18-3.32-3.22-1.73-.05-3.17,1.3-3.22,3.03,0,.06,0,.12,0,.19l.07,20.82" style="fill: none; stroke: #000; stroke-linecap: round; stroke-linejoin: round; stroke-width: 2px;"/>
          <path d="m24.82,59.64l-.21-19s-.32-3.24-3.19-3.24c-2.88,0-3.38,3.24-3.38,3.24" style="fill: none; stroke: #000; stroke-linecap: round; stroke-linejoin: round; stroke-width: 2px;"/>
          <path d="m31.31,63.27l-.17-13.7c-.21-1.55-1.56-2.69-3.13-2.64-1.61-.07-3.02,1.06-3.3,2.64" style="fill: none; stroke: #000; stroke-linecap: round; stroke-linejoin: round; stroke-width: 2px;"/>
          <path d="m18.14,57.69l-.17-20.15c-.21-1.55-1.56-2.69-3.13-2.64-1.61-.07-3.02,1.06-3.3,2.64l.04,7.01" style="fill: none; stroke: #000; stroke-linecap: round; stroke-linejoin: round; stroke-width: 2px;"/>
        </g>
        <line x1="35.36" y1="34.3" x2="43.4" y2="22.21" style="fill: none; stroke: #000; stroke-linecap: round; stroke-linejoin: round; stroke-width: 2px;"/>
        <path d="m31.7,43.03s2.34-1.74,3.06-2.4c1.3-1.04,1.99-2.66,1.85-4.32-.2-1.24-1.35-2.08-2.59-1.9" style="fill: none; stroke: #000; stroke-linecap: round; stroke-linejoin: round; stroke-width: 2px;"/>
        <polygon points="40.56 20.33 52.66 2.3 59.19 5.75 46.88 24.51 43.4 22.21 40.56 20.33" style="fill: none; stroke: #000; stroke-linecap: round; stroke-linejoin: round; stroke-width: 2px;"/>
      </g>
    </g>
  </g>
  <g id="Layer_25" data-name="Layer 25">
    <g>
      <g id="color-23" data-name="color">
        <path d="m10.12,65.79v-3.71c0-6.18,5.71-11.13,11.41-11.13,6.85,6.18,13.69,6.18,20.54,0,5.7,0,11.41,4.95,11.41,11.13v3.71" style="fill: #92d3f5;"/>
      </g>
      <g id="skin-14" data-name="skin">
        <path d="m41.73,22.83c-.14,2.22.2,4.44,1.01,6.51.89,1.76,1.44,3.67,1.62,5.64,0,5.71-5.85,12.55-12.62,12.55s-12.55-6.85-12.55-12.55c-.02-1.6.4-3.18,1.21-4.56,1.14-2.28,1.58-6.01,1.95-7.23l3.51-3.11c1.09-.91,2.27-1.7,3.53-2.36,2.51-1.4,3.76-1.09,5.54-.02,1.28.66,2.5,1.41,3.66,2.26l3.15,2.88Z" style="fill: #fcea2b;"/>
        <path d="m53.48,1.88c0,3.42-1.14,12.55-1.14,12.55v13.69c-1.14,4.56-4.56,4.56-4.56,4.56,0-6.85-3.42-13.69-3.42-13.69-1.55,1.34-2.84,2.95-3.81,4.76-1.7,2.75-4.18.95-3.03-1.34.96-1.91,3.48-6.41,4.56-7.99,1.08-1.63,2.7-2.84,4.56-3.42V1.88" style="fill: #fcea2b;"/>
        <path d="m10.12,1.88c0,3.42,1.14,12.55,1.14,12.55v13.69c1.14,4.56,4.56,4.56,4.56,4.56,0-6.85,3.42-13.69,3.42-13.69,1.55,1.34,2.84,2.95,3.81,4.76,1.7,2.75,4.18.95,3.03-1.34-.96-1.91-3.48-6.41-4.56-7.99-1.08-1.63-2.7-2.84-4.56-3.42V1.88" style="fill: #fcea2b;"/>
      </g>
      <g id="hair-5" data-name="hair">
        <path d="m44.02,34.32l-1.72-6.24c-.43-1.47-1.03-2.89-1.78-4.22l-3.31-.13v-3.46c.26-.1-4.13-2.56-5.45-2.4s-5.1,2.3-5.1,2.3l.42,2.56-4.16,1.28c-1.27,1.53-1.88,5.45-1.88,5.45l-1.88,10.51c-1.37-.72-3.01-2.87-3.35-7.26.11-3.91.88-7.76,2.28-11.41l.37-1.8c5.2,5.2,7.22,3.4,7.22,3.4,1.61-.06-4.95-10.54-4.95-10.54,3.61-3.21,6.62-3.09,11.02-3.09s6.65-.43,11.28,3.16c0,0-7.27,10.63-4.89,10.99s7.45-3.76,7.49-3.84.41,3.27.41,3.27c1,3.2,1.58,6.51,1.71,9.86-1.18,3.27-2.05,7.29-4.11,7.98l.36-6.36Z" style="fill: #f1b31c;"/>
      </g>
      <g id="line-25" data-name="line">
        <path d="m38.51,30.41c0,1.26-1.02,2.28-2.28,2.28s-2.28-1.02-2.28-2.28,1.02-2.28,2.28-2.28,2.28,1.02,2.28,2.28"/>
        <path d="m29.38,30.41c0,1.26-1.02,2.28-2.28,2.28s-2.28-1.02-2.28-2.28,1.02-2.28,2.28-2.28,2.28,1.02,2.28,2.28"/>
        <path d="m48.05,32.59c-.33,4.48-1.76,8.09-4.84,8.09" style="fill: none; stroke: #000; stroke-linecap: round; stroke-linejoin: round; stroke-width: 2px;"/>
        <path d="m24,11.47c2.45-1.11,5.12-1.65,7.81-1.6,2.58-.05,5.15.45,7.52,1.47" style="fill: none; stroke: #000; stroke-linecap: round; stroke-linejoin: round; stroke-width: 2px;"/>
        <path d="m20.39,40.68c-1.88,0-3.05-1.38-3.75-3.47-.45-1.47-.72-2.98-.81-4.51" style="fill: none; stroke: #000; stroke-linecap: round; stroke-linejoin: round; stroke-width: 2px;"/>
        <path d="m10.12,64.64v-3.42c0-5.7,5.71-10.27,11.41-10.27,6.85,5.71,13.69,5.71,20.54,0,5.7,0,11.41,4.57,11.41,10.27v3.42" style="fill: none; stroke: #000; stroke-linecap: round; stroke-linejoin: round; stroke-width: 2px;"/>
        <path d="m38.51,30.41c0,1.26-1.02,2.28-2.28,2.28s-2.28-1.02-2.28-2.28,1.02-2.28,2.28-2.28,2.28,1.02,2.28,2.28"/>
        <path d="m29.38,30.41c0,1.26-1.02,2.28-2.28,2.28s-2.28-1.02-2.28-2.28,1.02-2.28,2.28-2.28,2.28,1.02,2.28,2.28"/>
        <path d="m31.8,16.71c-.97.21-1.91.54-2.8.98" style="fill: none; stroke: #000; stroke-linecap: round; stroke-linejoin: round; stroke-width: 2px;"/>
        <path d="m20.39,27.11c-.63,2.58-1.04,5.21-1.21,7.86,0,5.71,5.63,12.55,12.55,12.55s12.62-6.85,12.62-12.55c-.12-2.65-.51-5.29-1.14-7.86" style="fill: none; stroke: #000; stroke-linecap: round; stroke-linejoin: round; stroke-width: 2px;"/>
        <path d="m28.38,39.54c2.15,1.11,4.7,1.11,6.85,0" style="fill: none; stroke: #000; stroke-linecap: round; stroke-linejoin: round; stroke-width: 2px;"/>
        <path d="m10.12,3.02c0,3.42,1.14,11.41,1.14,11.41v13.69c1.14,4.56,4.56,4.56,4.56,4.56,0-6.85,3.42-13.69,3.42-13.69l4.56,4.56c1.14,1.14,3.42,0,2.28-2.28-1.4-2.36-2.92-4.65-4.56-6.85-1.08-1.63-2.7-2.84-4.56-3.42V3.02" style="fill: none; stroke: #000; stroke-linecap: round; stroke-linejoin: round; stroke-width: 2px;"/>
        <path d="m53.8,3.02c0,3.42-1.14,11.41-1.14,11.41v13.69c-1.14,4.56-4.56,4.56-4.56,4.56,0-6.85-3.42-13.69-3.42-13.69l-4.56,4.56c-1.14,1.14-3.42,0-2.28-2.28,1.4-2.36,2.92-4.65,4.56-6.85,1.08-1.63,2.7-2.84,4.56-3.42V3.02" style="fill: none; stroke: #000; stroke-linecap: round; stroke-linejoin: round; stroke-width: 2px;"/>
        <path d="m31.8,16.71c.92.1,1.82.36,2.66.76" style="fill: none; stroke: #000; stroke-linecap: round; stroke-linejoin: round; stroke-width: 2px;"/>
      </g>
    </g>
  </g>
  <g id="Layer_26" data-name="Layer 26">
    <g>
      <g id="skin-15" data-name="skin">
        <circle cx="30.19" cy="10.19" r="3.23" style="fill: #fcea2b;"/>
        <path d="m24.37,23.43l2.4,2.84c-.09,2.68-.54,5.34-1.36,7.9-.67,2.14-1.55,20.31-1.74,30.24,0,.24.19.44.43.44l1.53.05c.26,0,.49-.18.53-.44l3.58-25.52,1.64-.03,3.62,25.78,2.53-.59s-.35-17.81-.83-24.07c-.43-5.59-2.05-9.04-2.05-13.48l2.05-3.11s.21,4.21,1.44,6.16c1.28,2.18,3.76,3.36,6.26,2.98,0,0,4.62-.62,5.44-2.26.33-.61.33-1.34,0-1.95-.1-.31-2.77.72-2.77.72l-2.98.51-2.16-1.13-1.33-1.54-2.05-7.5-3.59-1.34-9.96-.21-3.49,4.52-.51,4.42-1.74,1.23-6.88-6.37s-1.54,1.74-.51,3.18,3.9,5.44,6.06,5.85c1.66.48,3.44-.09,4.52-1.44,1.12-1.76,1.79-3.77,1.95-5.85Z" style="fill: #fcea2b;"/>
      </g>
      <g id="color-24" data-name="color">
        <circle cx="13.93" cy="15.15" r="2.05" style="fill: #ea5a47;"/>
        <circle cx="35.47" cy="3.3" r="2.05" style="fill: #92d3f5;"/>
        <circle cx="50.55" cy="24.84" r="2.05" style="fill: #b1cc33;"/>
      </g>
      <g id="line-26" data-name="line">
        <circle cx="30.73" cy="9.98" r="3.23" style="fill: none; stroke: #000; stroke-miterlimit: 10; stroke-width: 2px;"/>
        <path d="m13.08,22.4l3.8,4.31c1.85,2.16,3.8,1.54,4.21-1.23l.41-2.16c.51-2.77,2.67-5.34,4.93-5.54,2.73-.31,5.48-.31,8.21,0,2.26.31,4.52,2.77,4.93,5.54l.41,2.16c.51,2.77,2.67,4.62,4.93,4,2.26-.51,4.11-1.03,4.11-1.03" style="fill: none; stroke: #000; stroke-linecap: round; stroke-linejoin: round; stroke-width: 2px;"/>
        <path d="m35.56,24.2c-2.46,3.65-.72,6.37,0,8.35.52,1.91.83,3.87.92,5.84.62,6.26,1.03,25.05,1.03,25.05.19.96-.43,1.89-1.38,2.08-.02,0-.04,0-.05.01-1.01-.18-1.75-1.06-1.75-2.09l-2.57-22.96c-.1-1.15-.72-2.09-1.23-2.09s-1.13.94-1.23,2.09l-2.57,22.96c-.15.97-.82,1.77-1.74,2.09-.96-.16-1.61-1.07-1.45-2.03,0-.02,0-.04.01-.05,0,0,.51-18.58,1.13-24.84.12-2.07.4-4.13.82-6.16.62-1.98,2.46-4.91,0-8.35" style="fill: none; stroke: #000; stroke-linecap: round; stroke-linejoin: round; stroke-width: 2px;"/>
        <path d="m35.03,8.26s.69-.15,1,.25c.36.47.35,1.9.74,2.61.37.71.97,1.27,1.7,1.6" style="fill: none; stroke: #000; stroke-linecap: round; stroke-linejoin: round; stroke-width: 2px;"/>
      </g>
    </g>
  </g>
  <g id="Layer_27" data-name="Layer 27">
    <g>
      <g id="color-25" data-name="color">
        <polyline points="24.38 19.88 24.38 14.7 39.5 14.7 39.5 19.88" style="fill: #fcea2b;"/>
        <polyline points="50.07 2.32 38.63 13.77 31.95 13.77 27.14 8.96 33.78 2.32 50.07 2.32" style="fill: #92d3f5; stroke: #92d3f5; stroke-linecap: round; stroke-linejoin: round; stroke-width: 1.8px;"/>
        <polyline points="20.49 2.3 31.95 13.77 25.28 13.77 13.8 2.29 20.49 2.29" style="fill: #ea5a47; stroke: #ea5a47; stroke-linecap: round; stroke-linejoin: round; stroke-width: 1.8px;"/>
        <circle cx="31.95" cy="41.38" r="21.94" style="fill: #fcea2b;"/>
      </g>
      <g id="line-27" data-name="line">
        <circle cx="31.95" cy="41.38" r="21.94" style="fill: none; stroke: #000; stroke-miterlimit: 10; stroke-width: 2px;"/>
        <circle cx="31.95" cy="41.38" r="21.94" style="fill: none; stroke: #000; stroke-linecap: round; stroke-linejoin: round; stroke-width: 2px;"/>
        <line x1="25.28" y1="16.61" x2="25.28" y2="13.77" style="fill: none; stroke: #000; stroke-linecap: round; stroke-linejoin: round; stroke-width: 2px;"/>
        <line x1="38.63" y1="16.61" x2="38.63" y2="13.77" style="fill: none; stroke: #000; stroke-linecap: round; stroke-linejoin: round; stroke-width: 2px;"/>
        <line x1="25.28" y1="13.77" x2="38.63" y2="13.77" style="fill: none; stroke: #000; stroke-linecap: round; stroke-linejoin: round; stroke-width: 2px;"/>
        <line x1="22.4" y1="10.9" x2="13.8" y2="2.29" style="fill: none; stroke: #000; stroke-linecap: round; stroke-linejoin: round; stroke-width: 2px;"/>
        <line x1="28.13" y1="9.94" x2="20.49" y2="2.3" style="fill: none; stroke: #000; stroke-linecap: round; stroke-linejoin: round; stroke-width: 2px;"/>
        <line x1="30.04" y1="6.12" x2="33.78" y2="2.32" style="fill: none; stroke: #000; stroke-linecap: round; stroke-linejoin: round; stroke-width: 2px;"/>
        <line x1="41.49" y1="10.89" x2="50.07" y2="2.32" style="fill: none; stroke: #000; stroke-linecap: round; stroke-linejoin: round; stroke-width: 2px;"/>
        <line x1="13.8" y1="2.29" x2="20.49" y2="2.29" style="fill: none; stroke: #000; stroke-linecap: round; stroke-linejoin: round; stroke-width: 2px;"/>
        <line x1="33.78" y1="2.32" x2="50.07" y2="2.32" style="fill: none; stroke: #000; stroke-linecap: round; stroke-linejoin: round; stroke-width: 2px;"/>
        <polyline points="26.57 34.15 33.44 29.01 33.44 53.81" style="fill: none; stroke: #000; stroke-linecap: round; stroke-linejoin: round; stroke-width: 2px;"/>
      </g>
    </g>
  </g>
  <g id="Layer_28" data-name="Layer 28">
    <g>
      <g id="color-26" data-name="color">
        <path d="m56.19,47.24c-2.3-2.33-5.53-3.5-9.61-3.5h-2.87c-.08,0-.15-.06-.16-.14l-.18-1.09c6.48-3.19,11.02-10.4,11.02-18.78,0-11.33-8.28-20.54-18.47-20.54s-18.47,9.21-18.47,20.54c0,8.37,4.53,15.58,11.01,18.78l-.18,1.1c-.01.08-.08.14-.16.14h-2.87c-4.08,0-7.31,1.18-9.61,3.5-3.38,3.42-3.83,8.48-3.79,11.18v6.03c0,.66.53,1.19,1.19,1.19h45.77c.66,0,1.19-.53,1.19-1.19h0v-6.02c.03-2.71-.42-7.77-3.79-11.19Z" style="fill: #3f3f3f;"/>
        <path d="m35.91,15.98c9.1,0,16.75,1.69,18.27,11.34.19-1.19.29-2.39.29-3.59,0-11.33-8.28-20.54-18.47-20.54s-18.47,9.21-18.47,20.54c0,1.2.1,2.4.29,3.59,1.52-9.64,8.98-11.34,18.08-11.34Z"/>
        <path d="m56.18,47.63c-.03-.15-.07-.29-.13-.43-.04-.07-.09-.14-.15-.2-.03-.04-.06-.09-.09-.13-.03-.02-.06-.04-.08-.07h-.01c-2.55-2.14-5.81-3.23-9.13-3.06h-2.76c-.09,0-.18.03-.27.05-.03,0-.07,0-.1.02-.12.04-.23.1-.33.18-.02.01-.04.02-.06.04-.08.07-.16.16-.22.26-.09.11-.14.24-.16.37-.02.05-.04.1-.05.15,0,.05-.59,4.96-6.67,11.15-6.08-6.21-6.67-11.09-6.67-11.15-.01-.06-.03-.11-.05-.17-.02-.08-.04-.16-.07-.24-.03-.06-.07-.11-.11-.16-.05-.07-.1-.14-.17-.2-.05-.04-.1-.07-.15-.1-.13-.1-.29-.16-.45-.17-.06-.02-.12-.03-.19-.04h-2.87c-3.32-.16-6.57.92-9.13,3.04-.04.05-.08.09-.11.14-.05.06-.1.12-.13.18-.06.14-.11.28-.14.43,0,.09,0,.17.01.26,0,.05,0,.11,0,.16,1.9,7.06,6.21,13.24,12.19,17.46.2.15.45.24.71.24h16.29c.53,0,1-.35,1.14-.87.09-.32.03-.66-.14-.94,4.97-4.08,8.54-9.6,10.21-15.81,0-.05,0-.11,0-.16.01-.08.02-.16.01-.24Z"/>
        <path d="m13.44,46.72c.21.36.6.58,1.02.58.08,0,.17,0,.25-.03.5-.11.87-.52.93-1.02l.91-7.8c.07-.63-.35-1.2-.98-1.31l-6.23-1.09s-.04,0-.06,0c.04-.08.06-.17.08-.26l1.69-11.92c.09-.65-.36-1.25-1.01-1.34-.28-.04-.56.02-.8.17l-6.42,4.01c-.55.34-.72,1.06-.39,1.62l11.02,18.39Z" style="fill: #3f3f3f;"/>
        <path d="m24.11,44.38l-13.24-21.29c-.35-.56-1.08-.73-1.64-.38-.31.19-.51.51-.55.87l-1.46,12.29c-.07.62.35,1.2.97,1.31l7.18,1.26-1.09,9.17c-.07.62.35,1.2.97,1.31,2.32-2.51,5.46-4.12,8.85-4.54Z" style="fill: #d0cfce;"/>
      </g>
      <g id="skin-16" data-name="skin">
        <path d="m52.08,20.35c-2.79-3.38-8.24-5.1-16.18-5.1s-12.9,1.67-15.81,4.98c-1.54,1.68-2.34,3.9-2.22,6.17.22,2.04.73,4.03,1.51,5.93l.08.12-.23.19h0l.28-.11s.09.09.14.13l.06.06c.06.04.12.07.18.09l-.08.29.15-.26c.07.02.14.03.21.03h.05c.09,0,.18-.02.27-.04.09-.03,9.65-3.12,15.42-3.12,6.64,0,15.54,2.64,15.63,2.66.46.13.94-.11,1.09-.56l.06-.14c.63-1.7,1.05-3.47,1.25-5.27v-.02c.24-2.18-.43-4.36-1.85-6.03Z" style="fill: #fcea2b;"/>
      </g>
      <g id="line-28" data-name="line">
        <polyline points="15.97 48.63 3.44 27.72 9.87 23.72 23.13 45.05" style="fill: none; stroke: #000; stroke-linecap: round; stroke-linejoin: round; stroke-width: 2px;"/>
        <polyline points="9.23 29.03 8.41 36.01 18.64 37.83" style="fill: none; stroke: #000; stroke-linecap: round; stroke-linejoin: round; stroke-width: 2px;"/>
        <line x1="16.2" y1="41.55" x2="15.46" y2="47.76" style="fill: none; stroke: #000; stroke-linecap: round; stroke-linejoin: round; stroke-width: 2px;"/>
        <path d="m43.13,22.92c0,1.31-1.06,2.38-2.38,2.38s-2.38-1.06-2.38-2.38,1.06-2.38,2.38-2.38c1.31,0,2.37,1.06,2.38,2.38"/>
        <path d="m33.63,22.92c0,1.31-1.06,2.38-2.38,2.38s-2.38-1.06-2.38-2.38,1.06-2.38,2.38-2.38c1.31,0,2.37,1.06,2.38,2.38"/>
        <path d="m13.02,64.46v-6.03c-.05-4.32,1.14-13.5,12.22-13.5h2.87c.66,0,1.23-.48,1.34-1.13l.33-1.97" style="fill: none; stroke: #000; stroke-linecap: round; stroke-linejoin: round; stroke-width: 2px;"/>
        <path d="m58.79,64.46v-6.03c.05-4.32-1.14-13.5-12.22-13.5h-2.87c-.66,0-1.23-.48-1.34-1.13l-.33-1.97" style="fill: none; stroke: #000; stroke-linecap: round; stroke-linejoin: round; stroke-width: 2px;"/>
        <ellipse cx="35.91" cy="23.73" rx="17.28" ry="19.35" style="fill: none; stroke: #000; stroke-linecap: round; stroke-linejoin: round; stroke-width: 2px;"/>
        <path d="m20.21,31.82s9.73-3.16,15.7-3.16c6.83,0,15.88,2.7,15.88,2.7" style="fill: none; stroke: #000; stroke-linecap: round; stroke-linejoin: round; stroke-width: 2px;"/>
        <path d="m18.76,26.14s-1.27-10.16,17.15-10.16,17.14,10.16,17.14,10.16" style="fill: none; stroke: #000; stroke-linecap: round; stroke-linejoin: round; stroke-width: 2px;"/>
        <path d="m28.11,44.92s.88,9.77,16.83,19.53" style="fill: none; stroke: #000; stroke-linecap: round; stroke-linejoin: round; stroke-width: 2px;"/>
        <path d="m16.9,47.67c.93,3.77,3.67,10.78,11.75,16.79" style="fill: none; stroke: #000; stroke-linecap: round; stroke-linejoin: round; stroke-width: 2px;"/>
        <path d="m43.81,44.92s-.51,5.69-7.85,12.73" style="fill: none; stroke: #000; stroke-linecap: round; stroke-linejoin: round; stroke-width: 2px;"/>
        <path d="m55,47.74c-1.75,6.46-5.62,12.14-10.98,16.14" style="fill: none; stroke: #000; stroke-linecap: round; stroke-linejoin: round; stroke-width: 2px;"/>
      </g>
    </g>
  </g>
  <g id="Layer_29" data-name="Layer 29">
    <g>
      <g id="color-27" data-name="color">
        <path d="m11.54,32.27c5.04-6.85,14.68-8.33,21.53-3.29,6.85,5.04,8.33,14.68,3.29,21.53-1.18,1.61-2.66,2.97-4.36,4.01" style="fill: #8967aa;"/>
        <circle cx="17.79" cy="47.04" r="15.4" style="fill: #b399c8;"/>
        <polygon points="18.53 57.6 14.8 51.85 7.94 51.67 12.26 46.34 10.31 39.76 16.71 42.22 22.37 38.33 22.01 45.18 27.45 49.36 20.83 51.14 18.53 57.6" style="fill: #fcea2b;"/>
      </g>
      <g id="line-29" data-name="line">
        <polygon points="18.53 57.6 14.8 51.85 7.94 51.67 12.26 46.34 10.31 39.76 16.71 42.22 22.37 38.33 22.01 45.18 27.45 49.36 20.83 51.14 18.53 57.6" style="fill: none; stroke: #000; stroke-linecap: round; stroke-linejoin: round; stroke-width: 2px;"/>
        <circle cx="17.79" cy="47.04" r="15.4" style="fill: none; stroke: #000; stroke-linecap: round; stroke-linejoin: round; stroke-width: 2px;"/>
        <path d="m11.54,32.27c5.04-6.85,14.68-8.33,21.53-3.29,6.85,5.04,8.33,14.68,3.29,21.53-1.18,1.61-2.66,2.97-4.36,4.01" style="fill: none; stroke: #000; stroke-linecap: round; stroke-linejoin: round; stroke-width: 2px;"/>
        <path d="m51.61,9.07c1.47,3.53,6.45,3.17,6.45,3.17,2.02.21,3.82-1.27,4.03-3.28.01-.1.02-.2.02-.3-1.06-1.74-3.1-2.63-5.1-2.21,0,0-11.63.45-14.19,15.53-1.75,10.31-5.21,11.3-10.24,10.76-1.87-.2-3.37-1.15-6.68-2.62-.94-.41-1.92-.69-2.94-.84,0,0-3.92-.34-5.16.53" style="fill: none; stroke: #000; stroke-linecap: round; stroke-linejoin: round; stroke-width: 2px;"/>
        <path d="m8.83,34.74c5.04-6.85,14.68-8.33,21.53-3.29,6.85,5.04,8.33,14.68,3.29,21.53-1.18,1.61-2.66,2.97-4.36,4.01" style="fill: none; stroke: #000; stroke-linecap: round; stroke-linejoin: round; stroke-width: .5px;"/>
        <path d="m7.94,35.35c5.04-6.85,14.68-8.33,21.53-3.29,6.85,5.04,8.33,14.68,3.29,21.53-1.18,1.61-2.66,2.97-4.36,4.01" style="fill: none; stroke: #000; stroke-linecap: round; stroke-linejoin: round; stroke-width: .5px;"/>
        <path d="m7.02,36.27c5.04-6.85,14.68-8.33,21.53-3.29,6.85,5.04,8.33,14.68,3.29,21.53-1.18,1.61-2.66,2.97-4.36,4.01" style="fill: none; stroke: #000; stroke-linecap: round; stroke-linejoin: round; stroke-width: .5px;"/>
      </g>
    </g>
  </g>
  <g id="Layer_30" data-name="Layer 30">
    <g>
      <g id="color-28" data-name="color">
        <path d="m60.84,17.96l-9.07-9.07-29.1,29.1-10.48-10.48-9.07,9.07,19.72,19.74L60.84,17.96Z" style="fill: #b1cc33;"/>
      </g>
      <g id="line-30" data-name="line">
        <path d="m3.11,36.59l19.72,19.74L60.84,17.97l-9.07-9.07-29.1,29.1-10.48-10.48-9.07,9.07Z" style="fill: none; stroke: #000; stroke-linecap: round; stroke-linejoin: round; stroke-width: 2px;"/>
      </g>
    </g>
  </g>
</svg>